 <svg version="1.0" xmlns="http://www.w3.org/2000/svg" width="700.000000pt" height="700.000000pt" viewBox="0 0 700.000000 700.000000" preserveAspectRatio="xMidYMid meet">
<metadata>
Created by potrace 1.12, written by Peter Selinger 2001-2015
</metadata>
<g transform="translate(0.000000,700.000000) scale(0.100000,-0.100000)" fill="#000000" stroke="none">
<path d="M3310 6904 c-36 -2 -128 -11 -205 -20 -1051 -116 -1987 -702 -2547
-1593 -434 -690 -602 -1510 -478 -2331 85 -566 333 -1125 706 -1595 116 -146
411 -438 554 -549 147 -114 333 -236 485 -320 218 -120 553 -256 629 -256 70
0 133 36 162 92 19 37 21 708 2 708 -7 0 -50 -7 -95 -14 -333 -59 -631 -7
-840 147 -96 72 -158 154 -234 315 -112 234 -212 363 -356 455 -189 121 -188
211 2 211 118 0 233 -43 346 -130 76 -58 135 -125 212 -242 123 -185 258 -288
437 -333 126 -32 328 -11 490 50 l55 21 22 91 c27 114 78 223 143 304 l50 62
-93 13 c-753 101 -1207 434 -1382 1015 -65 216 -79 325 -80 615 0 269 4 304
52 455 53 169 130 313 238 445 l53 65 -23 81 c-50 174 -55 373 -15 571 23 111
67 245 83 255 38 24 230 -4 376 -54 119 -40 344 -153 471 -235 l95 -61 125 29
c446 103 921 112 1366 24 71 -14 153 -32 183 -40 l54 -14 101 63 c277 173 521
272 714 292 39 3 87 3 106 0 34 -7 36 -9 65 -99 50 -157 65 -256 65 -422 0
-150 -18 -275 -50 -353 -13 -33 -13 -33 55 -120 137 -173 222 -360 260 -569
28 -155 33 -257 22 -433 -26 -374 -112 -657 -270 -888 -74 -108 -227 -259
-336 -331 -210 -138 -496 -236 -840 -286 -60 -9 -110 -17 -111 -18 -2 -1 18
-27 43 -57 55 -65 115 -189 145 -297 21 -75 22 -102 28 -680 5 -588 5 -602 26
-629 34 -46 67 -65 125 -71 46 -4 71 1 169 35 237 81 523 226 750 377 704 470
1211 1183 1415 1990 77 305 105 526 105 845 0 307 -27 530 -101 829 -111 451
-320 876 -625 1271 -110 143 -402 437 -549 554 -514 410 -1129 665 -1785 740
-137 16 -452 27 -570 20z"></path>
<path d="M1257 2053 c-22 -21 11 -63 49 -63 32 0 41 25 19 50 -18 20 -55 27
-68 13z"></path>
<path d="M1404 1925 c-17 -42 31 -97 70 -82 23 9 19 50 -7 75 -27 26 -55 28
-63 7z"></path>
<path d="M1533 1744 c-9 -24 9 -64 37 -86 45 -33 76 -3 57 55 -15 44 -80 66
-94 31z"></path>
<path d="M1702 1558 c-19 -19 -14 -44 14 -77 29 -34 73 -42 94 -16 37 44 -67
134 -108 93z"></path>
<path d="M1936 1404 c-22 -21 -20 -31 9 -59 44 -45 131 -26 118 25 -11 42 -97
65 -127 34z"></path>
<path d="M2499 1395 c-34 -19 -41 -38 -23 -64 20 -28 86 -29 114 -1 26 26 25
45 -2 64 -27 20 -55 20 -89 1z"></path>
<path d="M2241 1367 c-39 -20 -48 -42 -27 -66 42 -46 153 -11 126 40 -10 17
-48 39 -68 39 -4 0 -18 -6 -31 -13z"></path>
</g>
</svg>