 <svg version="1.0" xmlns="http://www.w3.org/2000/svg" width="700.000000pt" height="700.000000pt" viewBox="0 0 700.000000 700.000000" preserveAspectRatio="xMidYMid meet">
<metadata>
Created by potrace 1.12, written by Peter Selinger 2001-2015
</metadata>
<g transform="translate(0.000000,700.000000) scale(0.100000,-0.100000)" fill="#000000" stroke="none">
<path d="M3305 6989 c-44 -4 -129 -13 -190 -18 -124 -13 -216 -26 -290 -42
-158 -35 -194 -43 -233 -56 -23 -7 -49 -13 -57 -13 -9 0 -23 -4 -33 -9 -9 -5
-55 -21 -102 -36 -231 -73 -465 -180 -718 -330 -206 -123 -462 -325 -652 -515
-385 -385 -691 -881 -845 -1370 -15 -47 -31 -93 -36 -102 -5 -10 -9 -24 -9
-33 0 -8 -6 -34 -13 -57 -13 -39 -21 -75 -56 -233 -27 -123 -70 -535 -71 -675
0 -141 42 -542 71 -675 35 -158 43 -194 56 -233 7 -23 13 -49 13 -57 0 -9 4
-23 9 -33 5 -9 21 -55 36 -102 154 -489 460 -985 845 -1370 190 -190 446 -392
652 -515 253 -150 487 -257 718 -330 47 -15 93 -31 102 -36 10 -5 24 -9 33 -9
8 0 34 -6 57 -13 39 -13 75 -21 233 -56 98 -22 174 -31 495 -61 172 -16 216
-15 570 20 120 12 213 25 285 41 158 35 194 43 233 56 23 7 49 13 57 13 9 0
23 4 33 9 9 5 55 21 102 36 231 73 465 180 718 330 206 123 462 325 652 515
385 385 691 881 845 1370 15 47 31 93 36 102 5 10 9 24 9 33 0 8 6 34 13 57
13 39 21 75 56 233 22 98 31 174 61 495 16 172 15 216 -20 570 -12 120 -25
213 -41 285 -35 158 -43 194 -56 233 -7 23 -13 49 -13 57 0 9 -4 23 -9 33 -5
9 -21 55 -36 102 -154 489 -460 985 -845 1370 -190 190 -446 392 -652 515
-253 150 -487 257 -718 330 -47 15 -93 31 -102 36 -10 5 -24 9 -33 9 -8 0 -34
6 -57 13 -39 13 -75 21 -233 56 -98 22 -174 31 -495 61 -119 11 -258 11 -375
-1z m-1355 -554 c7 -8 19 -15 26 -15 8 0 14 -7 14 -15 0 -8 4 -15 10 -15 5 0
43 -34 85 -75 41 -41 79 -75 83 -75 5 0 35 -27 67 -60 l57 -61 -4 -59 -4 -59
-217 -216 c-120 -119 -228 -231 -241 -248 -20 -27 -24 -48 -28 -124 -5 -85 -7
-94 -35 -120 -48 -46 -68 -53 -159 -53 l-86 0 -159 157 c-88 86 -159 165 -159
174 0 10 -5 21 -10 24 -13 8 -13 45 0 45 6 0 10 10 10 21 0 12 14 37 30 56 17
18 30 45 30 58 0 14 5 25 10 25 6 0 10 7 10 15 0 8 -4 15 -10 15 -5 0 -10 11
-10 23 0 13 -9 32 -20 42 -31 28 -25 68 18 114 21 23 43 41 48 41 5 0 28 18
49 40 21 22 43 40 48 40 6 0 20 11 33 25 13 14 27 25 32 25 5 0 19 11 32 25
13 14 28 25 33 25 5 0 26 12 46 28 48 36 72 51 94 58 9 4 17 9 17 13 0 4 17
15 38 26 20 11 51 30 68 42 17 13 36 23 41 23 6 0 16 7 23 15 7 8 27 15 45 15
18 0 38 -7 45 -15z m2368 -659 c89 -90 170 -167 180 -171 23 -10 82 -9 107 1
11 4 73 61 137 126 l117 118 241 0 c153 0 240 -4 240 -10 0 -5 6 -10 13 -10 7
0 55 -43 107 -95 92 -92 96 -95 140 -95 42 0 50 4 100 55 35 35 63 55 77 55
13 0 32 6 43 12 16 10 24 10 40 0 16 -10 24 -10 40 0 16 10 24 10 40 0 11 -6
25 -12 32 -12 16 0 78 -60 78 -76 0 -7 3 -14 8 -16 11 -5 122 -134 122 -142 0
-4 17 -28 38 -54 44 -55 60 -81 68 -104 4 -10 10 -18 15 -18 5 0 14 -10 20
-22 15 -34 34 -66 51 -85 8 -10 27 -42 42 -72 36 -70 50 -95 56 -101 10 -9 70
-137 70 -149 0 -6 4 -11 9 -11 5 0 13 -14 16 -32 4 -17 15 -46 25 -63 10 -17
21 -46 25 -63 3 -18 11 -32 16 -32 5 0 9 -10 9 -23 0 -13 7 -32 15 -43 8 -10
15 -29 15 -41 0 -12 4 -24 9 -28 6 -3 13 -26 17 -50 3 -25 10 -48 15 -50 4 -3
11 -26 15 -50 3 -25 10 -48 14 -50 5 -3 12 -30 15 -60 4 -31 11 -58 16 -61 5
-3 9 -23 9 -45 0 -21 4 -39 9 -39 5 0 12 -37 16 -82 4 -46 11 -88 16 -94 5 -6
12 -70 15 -143 4 -72 11 -134 16 -137 4 -3 8 -91 8 -195 0 -163 -2 -194 -17
-217 -10 -15 -20 -29 -23 -32 -8 -8 -29 -43 -39 -65 -10 -22 -56 -65 -70 -65
-5 0 -14 -7 -21 -15 -8 -9 -30 -15 -59 -15 -44 0 -48 3 -137 91 -77 77 -97 91
-130 96 -33 4 -45 1 -73 -23 -24 -20 -47 -29 -85 -32 -51 -4 -53 -3 -88 37
-33 39 -36 48 -40 119 l-3 77 -115 115 -115 115 -115 3 c-147 4 -169 14 -286
131 -101 100 -116 106 -180 72 -43 -23 -64 -60 -64 -111 0 -62 23 -93 90 -127
8 -4 20 -11 25 -15 52 -41 74 -55 98 -66 15 -6 30 -20 34 -29 4 -10 11 -21 16
-24 5 -4 9 -27 9 -52 1 -34 -5 -55 -23 -79 -13 -18 -33 -50 -43 -70 -11 -21
-23 -38 -27 -38 -4 0 -10 -13 -14 -29 -3 -16 -22 -45 -41 -65 l-35 -36 -167 0
-167 0 -105 108 c-58 59 -111 117 -118 129 -7 13 -12 59 -12 105 0 84 -12 125
-40 138 -8 4 -25 12 -37 18 -12 6 -24 8 -27 3 -3 -5 -22 -12 -41 -15 -21 -4
-35 -13 -35 -21 0 -8 -4 -15 -10 -15 -6 0 -10 -61 -10 -162 l0 -163 187 -187
188 -188 102 0 c77 0 111 -4 137 -17 38 -20 46 -36 46 -102 l0 -44 -243 -243
c-134 -133 -251 -253 -260 -267 -13 -21 -16 -64 -19 -275 l-3 -251 -82 -84
-83 -85 0 -100 0 -101 -65 -63 c-36 -35 -65 -69 -65 -75 0 -7 -6 -13 -12 -13
-15 0 -108 -94 -108 -108 0 -6 -19 -20 -43 -31 -38 -18 -62 -21 -185 -21 -88
0 -142 4 -142 10 0 6 -6 10 -13 10 -16 0 -170 158 -185 190 -6 14 -13 74 -14
133 -2 59 -8 111 -13 115 -6 4 -18 19 -28 34 -10 16 -23 28 -30 28 -22 0 -47
56 -47 107 0 44 4 53 41 88 65 64 69 80 69 245 0 104 -4 155 -13 173 -8 15
-43 55 -79 91 -70 69 -76 83 -85 196 -5 69 -29 110 -64 110 -10 0 -21 5 -24
10 -4 6 -126 10 -334 10 -280 0 -330 2 -341 15 -7 8 -17 15 -22 15 -12 0 -268
255 -268 267 0 6 -9 18 -20 28 -19 17 -20 31 -20 225 0 197 8 260 33 260 4 0
7 6 7 13 0 15 81 97 96 97 11 0 37 29 54 59 6 12 16 21 24 21 7 0 26 16 42 36
54 68 63 93 64 180 0 90 9 114 59 165 60 59 58 59 366 59 239 0 284 -2 295
-15 7 -8 18 -15 24 -15 6 0 79 -67 161 -150 82 -82 155 -150 162 -150 7 0 13
-4 13 -10 0 -5 20 -10 45 -10 25 0 45 4 45 9 0 5 14 12 30 16 17 4 30 11 30
16 0 5 6 9 13 9 8 0 24 11 37 25 13 14 29 25 36 25 7 0 26 11 42 25 16 13 48
27 71 31 23 4 44 11 47 15 3 5 85 9 182 9 97 0 187 3 200 6 20 6 22 12 22 69
0 107 -49 145 -186 145 -91 0 -131 11 -141 37 -4 10 -9 20 -12 23 -10 8 -30
43 -42 70 -6 14 -19 34 -29 45 -10 11 -21 31 -25 43 -8 29 -32 53 -65 69 -16
7 -106 13 -238 16 -143 4 -218 9 -227 17 -29 24 -45 73 -45 137 0 35 -4 63
-10 63 -5 0 -10 7 -10 15 0 32 -193 35 -211 2 -5 -9 -15 -22 -22 -29 -16 -18
-35 -48 -46 -74 -5 -12 -27 -40 -49 -63 -36 -38 -43 -41 -94 -41 -86 0 -123
-50 -130 -174 -6 -94 -8 -96 -181 -96 -113 0 -144 3 -168 17 -37 22 -41 46
-37 222 l3 143 33 29 c28 26 40 29 96 29 109 0 146 36 146 142 l0 60 165 164
166 164 274 0 c241 0 278 2 309 18 20 9 36 22 36 28 0 7 9 14 21 17 11 3 23
15 26 26 3 12 10 21 16 21 15 0 107 91 107 106 0 6 7 17 15 24 11 9 15 34 15
93 0 74 -2 83 -27 109 -25 26 -33 28 -102 28 l-76 0 -108 -107 -107 -108 -168
0 c-184 0 -188 1 -221 68 -12 23 -12 31 0 55 26 52 48 66 113 70 34 2 75 10
91 17 17 8 109 93 205 190 l175 175 170 0 170 0 163 -164z m-1981 -89 c19 -18
27 -39 31 -76 2 -28 9 -54 13 -57 5 -3 9 -36 9 -73 l0 -68 -51 -48 c-51 -47
-51 -47 -107 -42 -107 11 -142 23 -183 63 -38 37 -39 39 -39 112 0 73 1 75 38
113 21 21 52 41 68 45 16 4 44 20 63 37 30 26 40 29 84 24 35 -3 56 -11 74
-30z m-1437 -242 c14 -14 31 -25 36 -25 6 0 25 -15 43 -34 32 -33 33 -37 29
-104 -2 -45 -9 -74 -19 -85 -9 -8 -30 -44 -48 -79 -35 -69 -53 -100 -62 -108
-3 -3 -15 -26 -27 -51 -23 -50 -63 -89 -93 -89 -10 0 -20 -4 -23 -8 -8 -13
-103 -14 -111 -2 -3 5 -17 10 -30 10 -13 0 -30 7 -39 15 -8 8 -18 15 -23 15
-12 1 -43 67 -43 91 0 25 25 83 54 124 19 26 31 49 81 146 5 10 13 19 17 19 4
0 17 21 28 46 12 25 46 71 75 101 51 53 56 55 91 50 20 -4 49 -18 64 -32z
m2021 -142 c91 -87 92 -107 12 -184 -32 -30 -70 -61 -85 -68 -23 -12 -30 -11
-57 8 l-31 22 0 126 c0 116 2 127 22 144 38 33 65 24 139 -48z m-2028 -605
c12 -7 72 -62 134 -122 130 -127 142 -154 103 -229 -22 -44 -236 -267 -256
-267 -6 0 -19 -9 -28 -19 -15 -17 -35 -20 -148 -23 l-130 -3 -29 -35 c-39 -46
-44 -52 -52 -70 -10 -22 -29 -50 -59 -91 -16 -20 -28 -40 -28 -44 0 -6 -16
-28 -60 -82 -6 -7 -10 -16 -10 -21 0 -5 -7 -15 -15 -22 -13 -10 -15 -54 -15
-276 0 -169 4 -264 10 -264 6 0 10 -6 10 -13 0 -7 18 -31 40 -52 22 -21 40
-44 40 -50 1 -5 34 -46 75 -90 47 -50 75 -88 75 -102 0 -13 5 -23 10 -23 6 0
10 -38 10 -93 0 -90 1 -94 30 -122 23 -22 41 -29 85 -33 30 -2 55 -8 55 -13 0
-5 10 -9 23 -9 16 0 74 -52 199 -177 144 -144 179 -185 184 -213 4 -19 11 -40
15 -46 5 -6 5 -25 0 -42 -6 -19 -6 -34 0 -37 5 -4 9 -16 9 -29 0 -31 102 -142
153 -166 35 -17 62 -20 199 -20 143 0 160 -2 176 -19 35 -40 42 -51 42 -70 0
-11 5 -23 10 -26 14 -9 13 -240 -2 -268 -6 -12 -15 -29 -20 -37 -5 -8 -11 -23
-14 -32 -4 -10 -11 -18 -17 -18 -16 0 -117 -102 -117 -117 0 -7 -6 -13 -13
-13 -15 0 -102 -88 -110 -112 -4 -10 -12 -18 -18 -18 -6 0 -38 -25 -71 -55
-40 -37 -64 -53 -71 -47 -7 5 -25 12 -42 16 -20 5 -70 47 -147 124 -65 64
-118 121 -118 127 0 6 -20 31 -45 55 -25 24 -45 49 -45 55 -1 5 -14 21 -30 35
-17 13 -30 29 -30 35 0 6 -11 22 -25 35 -14 13 -25 28 -25 33 0 5 -10 19 -23
31 -13 12 -26 28 -30 36 -4 8 -16 29 -27 45 -11 17 -23 38 -26 48 -4 9 -10 17
-15 17 -5 0 -18 20 -29 44 -11 24 -23 46 -27 48 -8 3 -38 54 -75 128 -12 25
-25 47 -29 50 -4 3 -11 18 -14 33 -4 15 -11 27 -16 27 -5 0 -9 5 -9 11 0 12
-45 111 -88 194 -26 49 -26 56 -30 275 -2 124 -7 227 -11 230 -4 3 -15 22 -24
42 -10 20 -27 45 -40 55 -12 10 -41 40 -64 66 -40 47 -42 51 -49 138 -3 49
-11 92 -15 95 -5 3 -9 42 -9 88 0 45 -5 87 -10 92 -18 18 1 614 19 614 5 0 12
45 16 100 3 55 10 102 15 105 4 3 11 36 15 75 4 39 11 73 16 76 5 3 9 18 9 34
0 16 4 31 9 34 4 3 11 26 15 52 3 26 10 52 15 58 4 6 11 28 14 50 10 60 33 71
158 71 l106 0 87 83 86 82 80 0 c45 0 90 -5 103 -12z m4169 -2815 c28 -26 28
-28 28 -148 0 -136 -10 -171 -52 -181 -16 -3 -28 -10 -28 -15 0 -5 -11 -9 -25
-9 -14 0 -25 3 -25 8 0 4 -10 12 -22 17 -13 6 -27 20 -33 33 -5 12 -13 22 -17
22 -5 0 -8 54 -8 120 0 73 4 120 10 120 6 0 10 5 10 12 0 29 33 48 84 48 41 0
55 -5 78 -27z"></path>
</g>
</svg>