<?xml version="1.0" encoding="UTF-8"?>
<svg width="443px" height="160px" viewBox="0 0 443 160" version="1.1" xmlns="http://www.w3.org/2000/svg" xmlns:xlink="http://www.w3.org/1999/xlink">
    <!-- Generator: Sketch 56.3 (81716) - https://sketch.com -->
    <title>Artboard</title>
    <desc>Created with Sketch.</desc>
    <g id="Artboard" stroke="none" stroke-width="1" fill="none" fill-rule="evenodd">
        <g id="cv" transform="translate(20.000000, 39.000000)" fill-rule="nonzero">
            <path d="M399.202,23.423 C399.084,23.557 399.059,23.667 399.148,23.667 C399.236,23.667 399.343,23.798 399.385,23.958 C399.427,24.119 399.47,24.006 399.481,23.708 C399.503,23.095 399.496,23.089 399.202,23.423 M389.814,29.964 C389.759,30.295 389.783,30.45 389.876,30.358 C389.96,30.274 390,30.028 389.966,29.811 C389.914,29.477 389.89,29.501 389.814,29.964 M81.167,35.294 C81.167,35.394 81.049,35.594 80.905,35.738 C80.761,35.882 80.721,36 80.816,36 C81.027,36 81.398,35.343 81.264,35.208 C81.21,35.155 81.167,35.193 81.167,35.294 M263.514,47.808 C263.241,48.317 263.298,48.458 263.6,48.026 C263.747,47.817 263.828,47.606 263.781,47.558 C263.733,47.511 263.613,47.623 263.514,47.808 M48,52.62 C48,52.717 48.154,52.973 48.343,53.19 L48.686,53.583 L48.394,53.083 C48.008,52.425 48,52.415 48,52.62 M336.833,57.385 C336.833,57.414 337.077,57.658 337.375,57.927 L337.917,58.417 L337.427,57.875 C336.971,57.37 336.833,57.257 336.833,57.385 M375.583,72.419 L375.083,72.837 L375.624,72.543 C375.921,72.382 376.165,72.194 376.166,72.125 C376.167,71.943 376.133,71.96 375.583,72.419" id="Shape" fill="#333333"></path>
            <path d="M107.067,11.351 C106.287,12.214 108.739,12.167 64.396,12.167 C37.021,12.167 23.167,12.223 23.167,12.333 C23.167,12.425 22.993,12.5 22.781,12.5 C22.404,12.5 22.044,12.767 21.458,13.481 C20.913,14.146 21.046,16.453 21.667,17.116 C21.942,17.409 22.167,17.714 22.167,17.793 C22.167,17.872 22.335,18.118 22.542,18.34 C22.748,18.561 22.918,18.781 22.919,18.829 C22.921,18.877 23.071,19.092 23.253,19.306 L23.872,20.036 C24.03,20.223 24.112,20.453 24.054,20.547 C23.993,20.645 24.03,20.668 24.141,20.599 C24.247,20.534 24.333,20.56 24.333,20.656 C24.333,20.753 24.596,21.111 24.917,21.451 C25.238,21.791 25.5,22.15 25.5,22.248 C25.5,22.346 25.65,22.535 25.833,22.667 C26.017,22.799 26.167,22.985 26.167,23.082 C26.167,23.178 26.469,23.622 26.838,24.068 C27.207,24.515 27.636,25.095 27.79,25.357 C27.945,25.619 28.131,25.833 28.203,25.833 C28.275,25.833 28.333,25.916 28.333,26.018 C28.333,26.119 28.502,26.41 28.708,26.663 C28.915,26.917 29.233,27.334 29.417,27.59 C29.6,27.846 29.844,28.15 29.958,28.266 C30.073,28.381 30.167,28.55 30.167,28.641 C30.167,28.731 30.223,28.831 30.292,28.861 C30.456,28.934 31.348,30.131 31.33,30.255 C31.323,30.308 31.546,30.565 31.825,30.826 C32.105,31.087 32.333,31.359 32.333,31.431 C32.333,31.561 33.633,33.28 34.205,33.906 C34.367,34.084 34.5,34.317 34.5,34.423 C34.5,34.53 34.719,34.847 34.987,35.127 C35.255,35.407 35.43,35.681 35.376,35.735 C35.322,35.789 35.365,35.833 35.472,35.833 C35.579,35.833 35.667,35.95 35.667,36.093 C35.667,36.236 35.742,36.307 35.833,36.25 C35.925,36.193 36,36.264 36,36.407 C36,36.55 36.057,36.667 36.127,36.667 C36.197,36.667 36.44,36.967 36.667,37.333 C36.893,37.7 37.136,38 37.206,38 C37.276,38 37.333,38.104 37.333,38.232 C37.333,38.36 37.446,38.508 37.583,38.56 C37.721,38.613 37.833,38.734 37.833,38.83 C37.833,38.925 38.058,39.238 38.333,39.526 C38.608,39.814 38.833,40.151 38.833,40.275 C38.833,40.399 38.908,40.5 39,40.5 C39.092,40.5 39.167,40.58 39.167,40.679 C39.167,40.777 39.26,40.951 39.375,41.066 C39.49,41.18 39.808,41.561 40.083,41.91 C40.358,42.26 40.677,42.643 40.792,42.761 C40.906,42.879 41,43.077 41,43.201 C41,43.325 41.15,43.535 41.333,43.667 C41.517,43.799 41.667,43.986 41.667,44.083 C41.667,44.18 41.798,44.378 41.958,44.522 C42.426,44.944 42.833,45.489 42.833,45.691 C42.833,45.793 42.965,45.999 43.127,46.147 C43.288,46.295 43.641,46.717 43.91,47.083 C44.179,47.45 44.535,47.871 44.7,48.02 C44.865,48.168 45,48.412 45,48.561 C45,48.711 45.075,48.833 45.167,48.833 C45.2120909,48.8340485 45.254917,48.8529727 45.2860507,48.8856068 C45.3171844,48.9182409 45.3340734,48.9619097 45.333,49.007 C45.333,49.102 45.483,49.342 45.667,49.538 C45.85,49.735 46,49.995 46,50.115 C46,50.235 46.08,50.333 46.179,50.333 C46.411,50.333 46.692,50.638 46.985,51.206 C47.114,51.456 47.358,51.809 47.527,51.99 C47.695,52.171 47.833,52.402 47.833,52.503 C47.833,52.604 47.894,52.649 47.968,52.603 C48.041,52.558 48.241,52.778 48.411,53.094 C48.58,53.409 48.782,53.667 48.86,53.667 C48.937,53.667 49,53.779 49,53.917 C49,54.054 49.075,54.167 49.167,54.167 C49.2120909,54.1680485 49.254917,54.1869727 49.2860507,54.2196068 C49.3171844,54.2522409 49.3340734,54.2959097 49.333,54.341 C49.333,54.437 49.521,54.703 49.75,54.932 C49.979,55.161 50.167,55.409 50.167,55.483 C50.167,55.557 50.392,55.853 50.667,56.14 C50.942,56.428 51.167,56.776 51.167,56.914 C51.167,57.051 51.317,57.258 51.5,57.372 C51.683,57.487 51.833,57.673 51.833,57.787 C51.833,57.901 52.099,58.267 52.423,58.601 C52.748,58.936 53.123,59.421 53.257,59.681 C53.392,59.941 53.67,60.329 53.876,60.545 C54.082,60.76 54.325,61.05 54.417,61.19 C55.655,63.071 56.703,64.167 57.265,64.167 C57.497,64.167 57.646,64.232 57.596,64.313 C57.546,64.393 57.786,64.449 58.128,64.437 C58.733,64.415 60.333,63.727 60.333,63.489 C60.333,63.424 60.594,63.081 60.913,62.727 C61.232,62.373 61.494,61.96 61.496,61.809 C61.498,61.659 61.605,61.495 61.734,61.446 C61.863,61.396 62.215,60.995 62.516,60.553 C62.817,60.111 63.125,59.725 63.199,59.694 C63.273,59.664 63.333,59.533 63.333,59.403 C63.333,59.273 63.408,59.167 63.5,59.167 C63.5450891,59.1662113 63.5880173,59.1475398 63.6193374,59.1150944 C63.6506574,59.0826491 63.6678027,59.0390888 63.667,58.994 C63.667,58.9 63.927,58.562 64.244,58.244 C64.562,57.927 64.785,57.667 64.739,57.667 C64.693,57.667 64.967,57.254 65.348,56.75 C65.729,56.246 66.11,55.833 66.197,55.833 C66.283,55.833 66.306,55.758 66.249,55.665 C66.192,55.573 66.263,55.453 66.406,55.398 C66.549,55.343 66.667,55.208 66.667,55.098 C66.667,54.988 66.928,54.613 67.248,54.264 C67.568,53.914 67.781,53.551 67.722,53.455 C67.663,53.36 67.694,53.33 67.789,53.389 C67.885,53.449 68.084,53.244 68.231,52.934 C68.378,52.624 68.705,52.149 68.957,51.879 C69.21,51.608 69.529,51.168 69.667,50.901 C69.804,50.635 70.123,50.218 70.375,49.975 C70.627,49.732 70.833,49.469 70.833,49.39 C70.833,49.311 71.021,49.044 71.25,48.797 C71.479,48.55 71.667,48.25 71.667,48.13 C71.667,48.01 71.86,47.767 72.096,47.59 C72.332,47.413 72.633,47.06 72.763,46.807 C72.894,46.554 73.17,46.175 73.376,45.965 C73.6177809,45.7051279 73.8263751,45.4162534 73.997,45.105 C74.1645428,44.7997307 74.3738982,44.5193561 74.619,44.272 C74.825,44.076 74.996,43.829 74.997,43.722 C74.999,43.615 75.061,43.503 75.135,43.472 C75.209,43.442 75.524,43.042 75.836,42.583 C76.148,42.125 76.543,41.6 76.714,41.417 C76.886,41.233 77.149,40.877 77.299,40.625 C77.449,40.373 77.631,40.167 77.703,40.167 C77.775,40.167 77.833,40.012 77.833,39.823 C77.833,39.635 77.908,39.527 78,39.583 C78.092,39.64 78.167,39.569 78.167,39.427 C78.167,39.284 78.223,39.166 78.292,39.166 C78.36,39.165 78.594,38.904 78.811,38.586 C79.028,38.267 79.353,37.837 79.534,37.628 C79.715,37.42 79.985,37.044 80.134,36.792 C80.283,36.54 80.464,36.333 80.536,36.333 C80.608,36.333 80.667,36.221 80.667,36.083 C80.667,35.946 80.737,35.833 80.822,35.833 C80.908,35.833 81.025,35.682 81.084,35.498 C81.143,35.313 81.26,35.205 81.345,35.257 C81.43,35.31 81.5,35.255 81.5,35.135 C81.501,35.015 81.725,34.654 82,34.333 C82.275,34.012 82.499,33.656 82.5,33.542 C82.5,33.427 82.556,33.333 82.625,33.333 C82.787,33.333 84.333,31.246 84.333,31.028 C84.333,30.936 84.39,30.836 84.458,30.806 C84.527,30.775 84.882,30.375 85.248,29.917 C85.613,29.458 86.044,28.938 86.206,28.76 C86.368,28.583 86.5,28.349 86.5,28.242 C86.5,26.777 92.478,23.086 95.967,22.397 C96.864,22.22 97.734,21.881 97.8,21.684 C97.881,21.439 87.235,21.422 87.083,21.667 C87.027,21.758 86.747,21.833 86.461,21.833 C85.202,21.833 81.5,24.381 81.5,25.247 C81.5,25.346 81.35,25.535 81.167,25.667 C80.983,25.799 80.833,25.969 80.833,26.044 C80.833,26.184 80.668,26.407 80.083,27.05 C79.8679368,27.2975593 79.6804966,27.5678219 79.524,27.856 C79.399,28.098 79.048,28.584 78.743,28.937 C78.438,29.289 78.219,29.608 78.255,29.644 C78.292,29.681 78.137,29.856 77.911,30.034 C77.685,30.212 77.5,30.465 77.5,30.595 C77.5,30.726 77.425,30.833 77.333,30.833 C77.242,30.833 77.167,30.929 77.167,31.047 C77.167,31.164 77.017,31.368 76.833,31.5 C76.65,31.632 76.499,31.817 76.497,31.912 C76.496,32.006 76.325,32.243 76.119,32.439 C75.8744072,32.68568 75.6650924,32.9649908 75.497,33.269 C75.2991105,33.6149715 75.0625972,33.9373677 74.792,34.23 C74.54,34.497 74.333,34.809 74.333,34.924 C74.333,35.038 74.216,35.176 74.073,35.231 C73.929,35.286 73.859,35.407 73.916,35.499 C73.973,35.591 73.908,35.667 73.771,35.667 C73.634,35.667 73.478,35.808 73.423,35.98 C73.368,36.153 73.194,36.446 73.037,36.633 C72.266,37.544 72.167,37.683 72.167,37.846 C72.167,37.943 71.904,38.27 71.583,38.573 C71.262,38.875 71,39.211 71,39.319 C71,39.427 70.818,39.697 70.596,39.919 C70.374,40.141 70.144,40.475 70.085,40.661 C70.026,40.848 69.918,41 69.844,41 C69.771,41 69.509,41.306 69.261,41.68 C69.014,42.053 68.591,42.59 68.322,42.871 C68.053,43.152 67.833,43.471 67.833,43.579 C67.833,43.687 67.646,43.951 67.417,44.167 C67.188,44.382 67,44.631 67,44.719 C67,44.808 66.775,45.096 66.5,45.358 C66.225,45.621 66,45.936 66,46.059 C66,46.181 65.84,46.425 65.645,46.599 C65.45,46.774 65.103,47.211 64.875,47.57 C64.6565078,47.9171124 64.4132069,48.2479748 64.147,48.56 C63.974,48.745 63.833,48.995 63.833,49.115 C63.833,49.235 63.777,49.334 63.708,49.334 C63.64,49.335 63.406,49.596 63.19,49.913 C62.974,50.231 62.617,50.699 62.399,50.954 C62.18,51.208 62,51.478 62,51.553 C62,51.628 61.738,51.965 61.418,52.303 C61.098,52.64 60.836,52.994 60.835,53.088 C60.834,53.183 60.683,53.368 60.5,53.5 C60.317,53.632 60.167,53.802 60.167,53.877 C60.167,53.952 60.017,54.175 59.833,54.372 C59.65,54.569 59.5,54.828 59.5,54.948 C59.5,55.068 59.387,55.167 59.25,55.167 C59.112,55.167 59,55.262 59,55.38 C59,55.497 58.859,55.713 58.687,55.861 C58.515,56.008 58.331,56.231 58.28,56.356 C58.206,56.535 58.147,56.522 58.003,56.295 C57.903,56.136 57.598,55.763 57.327,55.466 C57.055,55.169 56.833,54.83 56.833,54.713 C56.833,54.596 56.775,54.5 56.703,54.5 C56.631,54.5 56.447,54.294 56.294,54.042 C56.0950586,53.72591 55.8741829,53.424169 55.633,53.139 C54.8,52.173 54.6,51.913 54.626,51.833 C54.642,51.788 54.507,51.581 54.327,51.374 C54.147,51.167 54,50.934 54,50.855 C54,50.777 53.737,50.435 53.417,50.095 C53.096,49.755 52.833,49.403 52.833,49.314 C52.833,49.225 52.644,48.963 52.413,48.732 C52.183,48.501 52.044,48.23 52.106,48.13 C52.173,48.021 52.141,47.996 52.026,48.067 C51.92,48.133 51.833,48.112 51.833,48.022 C51.833,47.931 51.571,47.579 51.25,47.239 C50.929,46.898 50.667,46.533 50.667,46.426 C50.667,46.319 50.423,45.957 50.125,45.621 C49.415,44.82 48.5,43.584 48.5,43.426 C48.5,43.357 48.275,43.09 48,42.833 C47.725,42.576 47.5,42.297 47.5,42.212 C47.5,42.127 47.312,41.882 47.083,41.667 C46.854,41.451 46.667,41.176 46.667,41.054 C46.667,40.933 46.592,40.833 46.5,40.833 C46.408,40.833 46.333,40.737 46.333,40.62 C46.333,40.503 46.183,40.299 46,40.167 C45.817,40.035 45.667,39.836 45.667,39.725 C45.667,39.614 45.404,39.245 45.083,38.905 C44.762,38.565 44.5,38.185 44.5,38.06 C44.5,37.935 44.444,37.833 44.375,37.832 C44.306,37.831 43.987,37.422 43.667,36.922 C43.346,36.422 42.985,36.01 42.865,36.007 C42.745,36.003 42.693,35.925 42.75,35.833 C42.807,35.742 42.779,35.667 42.688,35.667 C42.597,35.667 42.478,35.525 42.423,35.353 C42.368,35.18 42.1,34.806 41.828,34.521 C41.556,34.236 41.333,33.946 41.333,33.877 C41.333,33.807 41.071,33.455 40.75,33.095 C40.429,32.734 40.167,32.375 40.167,32.295 C40.167,32.216 39.979,31.964 39.75,31.735 C39.521,31.506 39.333,31.249 39.333,31.165 C39.333,31.08 39.127,30.801 38.875,30.543 C38.623,30.285 38.417,30.026 38.417,29.967 C38.417,29.908 38.24,29.657 38.025,29.41 C37.7785947,29.1135326 37.570926,28.786908 37.407,28.438 C37.282,28.151 37.177,27.984 37.173,28.067 C37.17,28.149 36.943,27.907 36.669,27.529 C36.142,26.802 35.718,26.271 35.375,25.91 C35.26,25.789 35.167,25.62 35.167,25.533 C35.167,25.446 34.905,25.09 34.586,24.741 C34.266,24.392 34.036,24.075 34.075,24.036 C34.114,23.997 33.963,23.796 33.74,23.588 C33.516,23.381 33.333,23.158 33.333,23.092 C33.333,23.027 33.071,22.652 32.75,22.261 C32.429,21.869 32.167,21.493 32.167,21.425 C32.167,21.356 31.942,21.09 31.667,20.833 C31.392,20.576 31.167,20.316 31.167,20.255 C31.167,20.194 30.942,19.816 30.667,19.417 C30.392,19.017 30.167,18.61 30.167,18.512 C30.167,18.414 30.062,18.333 29.934,18.333 C29.807,18.333 29.659,18.221 29.606,18.083 C29.521,17.862 33.199,17.833 62.089,17.833 C82.665,17.833 94.667,17.775 94.667,17.674 C94.667,17.587 94.948,17.472 95.292,17.419 C99.939,16.708 106.391,13.573 107.509,11.483 C107.743,11.047 107.428,10.953 107.067,11.351 M310.833,38.338 L310.833,60.176 L313.292,60.129 L315.75,60.083 L315.792,38.292 L315.835,16.5 L310.833,16.5 L310.833,38.338 M323.167,38.333 L323.167,60.176 L325.625,60.129 L328.083,60.083 L328.083,16.583 L325.625,16.537 L323.167,16.491 L323.167,38.333 M394.381,19.732 C393.995,19.925 393.676,20.177 393.673,20.292 C393.668208,20.4075469 393.573642,20.4990335 393.458,20.5 C393.343,20.5 393.073,20.856 392.858,21.292 C392.643,21.727 392.399,22.214 392.317,22.373 C392.121,22.75 392.123,24.588 392.319,24.961 C392.403,25.12 392.595,25.533 392.746,25.88 C392.897,26.226 393.166,26.601 393.343,26.712 C393.521,26.823 393.668,26.989 393.67,27.082 C393.678,27.538 395.253,28 396.8,28 C398.442,28 399.239,27.698 399.828,26.852 C399.963,26.658 400.151,26.5 400.246,26.5 C400.341,26.5 400.531,26.256 400.668,25.958 C401.189,24.824 400.893,20.833 400.287,20.833 C400.215,20.833 399.893,20.571 399.572,20.25 C399.251,19.929 398.879,19.667 398.744,19.667 C398.61,19.667 398.5,19.592 398.5,19.5 C398.5,19.158 395.152,19.347 394.381,19.732 M397.5,21 C397.679,21.116 397.501,21.162 396.875,21.164 C396.394,21.166 396,21.092 396,21 C396,20.787 397.17,20.787 397.5,21 M394.667,23.667 C394.667,24.778 394.601,25.5 394.5,25.5 C394.408,25.5 394.333,25.35 394.333,25.167 C394.333,24.983 394.258,24.833 394.167,24.833 C393.927,24.833 393.96,22.819 394.208,22.285 C394.572,21.501 394.667,21.786 394.667,23.667 M397.667,22.75 C397.667,22.935 397.472,23 396.917,23 C396.361,23 396.167,22.935 396.167,22.75 C396.167,22.565 396.361,22.5 396.917,22.5 C397.472,22.5 397.667,22.565 397.667,22.75 M399.477,23.875 C399.457,24.265 399.309,24.757 399.147,24.969 L398.853,25.354 L398.59,24.847 C398.343,24.368 398.347,24.328 398.664,24.13 C398.849,24.014 399,23.86 399,23.786 C399,23.661 399.359,23.187 399.465,23.1729787 C399.492,23.17 399.497,23.485 399.477,23.875 M396.603,24.71 C397.199,25.903 397.385,26.168 397.637,26.178 C398.162,26.2 397.292,26.476 396.667,26.486 C395.962,26.497 395.495,26.268 395.903,26.112 C396.095,26.038 396.167,25.783 396.167,25.172 C396.167,24.267 396.308,24.118 396.603,24.71 M284.333,29.333 C284.333,29.425 283.996,29.5 283.583,29.5 C283.171,29.5 282.833,29.575 282.833,29.667 C282.833,29.758 282.608,29.833 282.333,29.833 C282.058,29.833 281.833,29.891 281.833,29.961 C281.833,30.031 281.552,30.211 281.208,30.361 C280.502,30.669 278.787,32.291 278.928,32.518 C278.978,32.6 278.94,32.667 278.843,32.667 C278.746,32.667 278.667,32.779 278.667,32.917 C278.667,33.054 278.592,33.167 278.5,33.167 C278.408,33.167 278.333,33.337 278.333,33.546 C278.333,33.755 278.23,34.074 278.103,34.255 C277.944,34.482 277.864,35.187 277.845,36.542 L277.816,38.5 L280.387,38.5 C283.4,38.5 283.33,38.539 283.314,36.873 C283.299,35.254 284.417,34.049 286.208,33.754 C286.552,33.698 286.833,33.58 286.833,33.492 C286.833,33.248 293.717,33.284 293.963,33.529 C294.07,33.637 294.479,33.755 294.871,33.791 C295.263,33.826 295.608,33.926 295.639,34.011 C295.669,34.097 295.819,34.169 295.972,34.172 C296.24,34.177 297.029,34.667 296.77,34.667 C296.7,34.667 296.755,34.779 296.893,34.917 C297.03,35.054 297.191,35.167 297.25,35.167 C297.482,35.167 297.833,35.661 297.833,35.988 C297.833,36.178 297.908,36.333 298,36.333 C298.092,36.333 298.167,36.741 298.167,37.24 C298.167,37.739 298.242,38.193 298.333,38.25 C298.433,38.312 298.5,39.423 298.5,41.023 L298.5,43.693 L297.803,43.096 C297.42,42.768 296.975,42.5 296.813,42.5 C296.652,42.5 296.473,42.425 296.417,42.333 C296.36,42.242 296.137,42.167 295.921,42.167 C295.705,42.167 295.499,42.081 295.465,41.977 C295.43,41.872 295.037,41.76 294.592,41.726 C294.146,41.692 293.695,41.593 293.589,41.505 C293.341,41.299 284.68,41.292 284.049,41.497 C283.657,41.624 282.603,41.804 282.115,41.827 C282.041,41.831 282.017,41.892 282.061,41.965 C282.106,42.037 281.942,42.113 281.696,42.133 C281.451,42.153 281.225,42.244 281.194,42.335 C281.164,42.426 280.958,42.5 280.736,42.5 C280.515,42.5 280.333,42.575 280.333,42.667 C280.333,42.758 280.242,42.833 280.129,42.833 C279.86,42.833 278.052,44.74 277.917,45.167 C277.858,45.35 277.741,45.5 277.655,45.5 C277.57,45.5 277.5,45.721 277.5,45.99 C277.5,46.26 277.425,46.527 277.333,46.583 C277.242,46.64 277.167,47.015 277.167,47.417 C277.167,47.818 277.092,48.193 277,48.25 C276.9,48.312 276.833,49.415 276.833,51 C276.833,52.585 276.9,53.688 277,53.75 C277.092,53.807 277.167,54.186 277.167,54.593 C277.167,55 277.242,55.333 277.333,55.333 C277.425,55.333 277.5,55.479 277.5,55.657 C277.5,55.835 277.575,56.027 277.667,56.083 C277.758,56.14 277.833,56.298 277.833,56.434 C277.833,56.571 278.021,56.856 278.25,57.069 C278.479,57.281 278.667,57.539 278.667,57.643 C278.667,57.746 278.817,57.924 279,58.039 C279.183,58.153 279.333,58.341 279.333,58.457 C279.333,58.572 279.483,58.667 279.667,58.667 C279.85,58.667 280,58.742 280,58.833 C280,58.925 280.106,59 280.236,59 C280.366,59 280.499,59.079 280.531,59.176 C280.563,59.272 280.701,59.374 280.836,59.401 C280.972,59.429 281.383,59.587 281.75,59.753 C282.117,59.919 282.848,60.089 283.375,60.131 C283.902,60.173 284.333,60.273 284.333,60.353 C284.333,60.563 293.454,60.543 293.583,60.333 C293.64,60.242 293.977,60.167 294.333,60.167 C294.689,60.167 295.027,60.092 295.083,60 C295.14,59.908 295.317,59.833 295.477,59.833 C295.92,59.833 296.664,59.442 296.665,59.208 C296.666,59.094 296.779,59 296.916,59 C297.054,59 297.447,58.734 297.791,58.409 L298.417,57.818 L298.466,58.997 L298.515,60.175 L300.966,60.129 L303.417,60.083 L303.459,48.176 C303.488,40.35 303.445,36.211 303.334,36.101 C303.242,36.009 303.167,35.648 303.167,35.3 C303.167,34.952 303.092,34.667 303,34.667 C302.908,34.667 302.833,34.516 302.833,34.331 C302.833,33.94 302.508,33.309 302.208,33.117 C302.087142,33.0315934 302.010837,32.896592 302,32.749 C302,32.461 300.169,30.646 299.99,30.756 C299.92,30.8 299.837,30.779 299.806,30.709 C299.702,30.476 298.305,29.833 297.901,29.833 C297.68,29.833 297.5,29.758 297.5,29.667 C297.5,29.574 297.056,29.5 296.5,29.5 C295.944,29.5 295.5,29.426 295.5,29.333 C295.5,29.226 293.528,29.167 289.917,29.167 C286.306,29.167 284.333,29.226 284.333,29.333 M343.667,29.333 C343.667,29.426 343.222,29.5 342.667,29.5 C342.111,29.5 341.667,29.574 341.667,29.667 C341.667,29.758 341.409,29.833 341.093,29.833 C340.778,29.833 340.473,29.908 340.417,30 C340.36,30.092 340.131,30.167 339.907,30.167 C339.683,30.167 339.5,30.242 339.5,30.333 C339.5,30.425 339.405,30.5 339.29,30.5 C339.174,30.5 338.878,30.688 338.631,30.917 C338.383,31.146 338.132,31.333 338.072,31.333 C337.496,31.333 335.333,34.74 335.333,35.647 C335.333,35.83 335.258,36.027 335.167,36.083 C335.075,36.14 335,36.477 335,36.833 C335,37.189 334.925,37.527 334.833,37.583 C334.742,37.64 334.667,38.357 334.667,39.177 C334.667,40.059 334.599,40.667 334.5,40.667 C334.393,40.667 334.333,42.194 334.333,44.917 C334.333,47.639 334.393,49.167 334.5,49.167 C334.6,49.167 334.667,49.833 334.667,50.833 C334.667,51.833 334.733,52.5 334.833,52.5 C334.925,52.5 335,52.759 335,53.075 C335,53.392 335.084,53.861 335.187,54.117 L335.54,55 C335.631,55.229 335.772,55.529 335.854,55.667 C335.935,55.804 336.053,56.029 336.114,56.167 C336.176,56.304 336.363,56.538 336.53,56.686 C336.697,56.834 336.833,57.029 336.833,57.117 C336.833,57.33 338.263,58.667 338.49,58.667 C338.587,58.667 338.667,58.742 338.667,58.833 C338.667,58.925 338.765,59 338.885,59 C339.006,59 339.493,59.188 339.968,59.417 C340.443,59.646 341.02,59.833 341.249,59.833 C341.479,59.833 341.667,59.908 341.667,60 C341.667,60.092 342.079,60.167 342.583,60.167 C343.087,60.167 343.5,60.238 343.5,60.324 C343.5,60.548 353.443,60.561 353.581,60.338 C353.639,60.244 354.038,60.167 354.469,60.167 C355.222,60.167 357.404,59.496 357.738,59.162 C357.84768,59.0644481 357.987395,59.0072921 358.134,59 C358.415,59 360.33,57.004 360.332,56.708 C360.333,56.594 360.408,56.5 360.5,56.5 C360.592,56.5 360.667,56.35 360.667,56.167 C360.667,55.983 360.742,55.833 360.833,55.833 C360.925,55.833 361,55.571 361,55.25 C361,54.929 361.075,54.667 361.167,54.667 C361.269,54.667 361.333,53.833 361.333,52.5 L361.333,50.333 L359.094,50.333 C355.933,50.333 356,50.292 356,52.23 C356,53.866 355.58,55.167 355.052,55.167 C354.932,55.167 354.833,55.242 354.833,55.333 C354.833,55.425 354.683,55.5 354.5,55.5 C354.317,55.5 354.167,55.567 354.167,55.649 C354.167,56.033 344.976,56.376 344.606,56.006 C344.511,55.911 344.073,55.833 343.633,55.833 C343.193,55.833 342.833,55.758 342.833,55.667 C342.833,55.575 342.72,55.5 342.581,55.5 C341.82,55.5 340.12,53.646 340.427,53.15 C340.485,53.056 340.419,52.852 340.28,52.698 C340.011,52.398 339.88,51.256 339.734,47.958 L339.647,46 L361.333,46 L361.333,41.927 C361.333,39.391 361.27,37.814 361.167,37.75 C361.075,37.693 361,37.201 361,36.657 C361,36.108 360.926,35.667 360.833,35.667 C360.742,35.667 360.667,35.478 360.667,35.248 C360.667,35.017 360.599,34.699 360.517,34.539 C360.332769,34.1744354 360.152093,33.8080847 359.975,33.44 C359.564,32.591 357.851,30.748 357.314,30.577 C357.141,30.522 357,30.408 357,30.322 C357,30.237 356.817,30.167 356.593,30.167 C356.369,30.167 356.14,30.092 356.083,30 C356.027,29.908 355.76,29.833 355.49,29.833 C355.221,29.833 355,29.758 355,29.667 C355,29.574 354.556,29.5 354,29.5 C353.444,29.5 353,29.426 353,29.333 C353,29.226 351.333,29.167 348.333,29.167 C345.333,29.167 343.667,29.226 343.667,29.333 M247.833,30.26 C247.833,30.724 247.898,30.98 248,30.917 C248.095,30.858 248.167,31 248.167,31.246 C248.167,31.484 248.286,31.86 248.431,32.082 C248.576,32.304 248.652,32.555 248.6,32.64 C248.547,32.726 248.615,32.888 248.752,33.002 C248.888,33.115 249,33.423 249,33.687 C249,33.951 249.075,34.167 249.167,34.167 C249.258,34.167 249.333,34.387 249.333,34.657 C249.333,34.926 249.408,35.193 249.5,35.25 C249.592,35.307 249.667,35.521 249.667,35.727 C249.667,35.932 249.739,36.172 249.828,36.261 C249.916,36.35 250.007,36.659 250.029,36.95 C250.051,37.24 250.129,37.44 250.201,37.395 C250.31,37.328 250.412,37.952 250.358,38.359 C250.35,38.419 250.454,38.559 250.589,38.671 C250.723,38.783 250.833,39.09 250.833,39.354 C250.833,39.618 250.908,39.833 251,39.833 C251.092,39.833 251.167,40.016 251.167,40.24 C251.167,40.464 251.242,40.693 251.333,40.75 C251.425,40.807 251.5,41.032 251.5,41.25 C251.5,41.468 251.567,41.688 251.648,41.739 C251.73,41.789 251.837,42.075 251.886,42.373 C252.045,43.331 252.213,43.914 252.357,44.009 C252.435,44.06 252.515,44.309 252.536,44.561 C252.557,44.814 252.67,45.1 252.787,45.198 C252.904,45.295 253,45.59 253,45.854 C253,46.118 253.075,46.333 253.167,46.333 C253.258,46.333 253.333,46.516 253.333,46.74 C253.333,46.964 253.408,47.193 253.5,47.25 C253.592,47.307 253.667,47.532 253.667,47.75 C253.667,47.968 253.733,48.188 253.815,48.239 C253.896,48.289 254.004,48.575 254.053,48.873 C254.214,49.847 254.38,50.415 254.533,50.515 C254.616,50.569 254.705,50.816 254.732,51.063 C254.758,51.311 254.867,51.6 254.973,51.706 C255.08,51.813 255.167,52.11 255.167,52.367 C255.167,52.623 255.242,52.833 255.333,52.833 C255.425,52.833 255.5,53.054 255.5,53.323 C255.5,53.593 255.575,53.86 255.667,53.917 C255.758,53.973 255.833,54.166 255.833,54.345 C255.833,54.525 255.901,54.801 255.985,54.961 C256.068,55.12 256.252,55.625 256.394,56.083 C256.771,57.3 257.089,58.144 257.219,58.275 C257.282,58.337 257.333,58.597 257.333,58.851 C257.333,59.106 257.408,59.36 257.5,59.417 C257.592,59.473 257.667,59.667 257.667,59.846 C257.667,60.398 264.725,60.261 264.803,59.708 C264.833,59.502 264.926,59.333 265.012,59.333 C265.097,59.333 265.167,59.108 265.167,58.833 C265.167,58.558 265.242,58.333 265.333,58.333 C265.425,58.333 265.5,58.071 265.5,57.75 C265.5,57.429 265.566,57.167 265.647,57.167 C265.728,57.167 265.833,56.998 265.88,56.792 C265.987,56.324 266.331,55.345 266.522,54.961 C266.602,54.801 266.667,54.525 266.667,54.345 C266.667,54.166 266.742,53.973 266.833,53.917 C266.925,53.86 267,53.593 267,53.323 C267,53.054 267.075,52.833 267.167,52.833 C267.258,52.833 267.333,52.608 267.333,52.333 C267.333,52.058 267.408,51.833 267.5,51.833 C267.592,51.833 267.667,51.571 267.667,51.25 C267.667,50.929 267.733,50.667 267.814,50.667 C267.895,50.667 268,50.498 268.047,50.292 C268.154,49.824 268.497,48.845 268.689,48.461 C268.768,48.301 268.833,48.025 268.833,47.845 C268.833,47.666 268.908,47.473 269,47.417 C269.092,47.36 269.167,47.135 269.167,46.917 C269.167,46.698 269.242,46.473 269.333,46.417 C269.425,46.36 269.5,46.131 269.5,45.907 C269.5,45.683 269.575,45.5 269.667,45.5 C269.758,45.5 269.833,45.247 269.833,44.937 C269.833,44.627 269.934,44.291 270.056,44.189 C270.179,44.087 270.379,43.587 270.501,43.078 C270.624,42.568 270.786,42.113 270.862,42.066 C270.938,42.019 271,41.76 271,41.49 C271,41.221 271.075,41 271.167,41 C271.258,41 271.333,40.737 271.333,40.417 C271.333,40.096 271.408,39.833 271.5,39.833 C271.592,39.833 271.667,39.646 271.667,39.417 C271.667,39.188 271.742,39 271.833,39 C271.925,39 272,38.737 272,38.417 C272,38.096 272.07,37.833 272.155,37.833 C272.24,37.833 272.429,37.402 272.575,36.875 C272.721,36.348 272.913,35.786 273.003,35.627 C273.093,35.468 273.167,35.149 273.167,34.919 C273.167,34.689 273.242,34.5 273.333,34.5 C273.425,34.5 273.5,34.237 273.5,33.917 C273.5,33.596 273.575,33.333 273.667,33.333 C273.758,33.333 273.833,33.146 273.833,32.917 C273.833,32.688 273.908,32.5 274,32.5 C274.092,32.5 274.167,32.311 274.167,32.081 C274.167,31.851 274.231,31.532 274.309,31.373 C275.282,29.39 275.418,29.5 271.99,29.5 L269.167,29.5 L269.167,29.917 C269.167,30.146 269.092,30.333 269,30.333 C268.908,30.333 268.833,30.554 268.833,30.823 C268.833,31.093 268.758,31.36 268.667,31.417 C268.575,31.473 268.5,31.778 268.5,32.093 C268.5,32.409 268.425,32.667 268.333,32.667 C268.242,32.667 268.167,32.929 268.167,33.25 C268.167,33.571 268.106,33.833 268.032,33.833 C267.957,33.833 267.762,34.302 267.597,34.875 C267.012,36.913 266.957,37.087 266.813,37.373 C266.732,37.532 266.667,37.846 266.667,38.071 C266.667,38.296 266.592,38.527 266.5,38.583 C266.408,38.64 266.333,38.865 266.333,39.083 C266.333,39.302 266.258,39.527 266.167,39.583 C266.075,39.64 266,39.892 266,40.143 C266,40.394 265.922,40.678 265.827,40.773 C265.732,40.868 265.619,41.14 265.576,41.379 C265.533,41.617 265.348,42.16 265.165,42.586 C264.983,43.012 264.833,43.58 264.833,43.847 C264.833,44.115 264.758,44.333 264.667,44.333 C264.575,44.333 264.5,44.596 264.5,44.917 C264.5,45.237 264.425,45.5 264.333,45.5 C264.242,45.5 264.167,45.721 264.167,45.99 C264.167,46.26 264.092,46.527 264,46.583 C263.908,46.64 263.833,46.901 263.833,47.163 C263.833,47.425 263.708,47.889 263.555,48.195 C263.033,49.237 263,49.329 263,49.748 C263,49.978 262.941,50.167 262.869,50.167 C262.797,50.167 262.719,50.41 262.697,50.708 C262.674,51.006 262.583,51.275 262.495,51.306 C262.406,51.336 262.333,51.613 262.333,51.921 C262.333,52.229 262.258,52.527 262.167,52.583 C262.075,52.64 262,52.907 262,53.177 C262,53.446 261.925,53.667 261.833,53.667 C261.742,53.667 261.667,53.929 261.667,54.25 C261.667,54.571 261.597,54.833 261.512,54.833 C261.427,54.833 261.323,54.965 261.282,55.125 C261.223,55.35 261.201,55.333 261.186,55.052 C261.175,54.851 261.092,54.64 261,54.583 C260.908,54.527 260.833,54.264 260.833,54 C260.833,53.736 260.758,53.473 260.667,53.417 C260.575,53.36 260.5,53.167 260.5,52.988 C260.5,52.809 260.435,52.532 260.356,52.373 C260.08,51.821 259.795,50.915 259.766,50.5 C259.75,50.271 259.646,50.102 259.535,50.125 C259.408,50.151 259.333,49.952 259.333,49.583 C259.333,49.262 259.267,49 259.185,49 C259.103,49 258.996,48.756 258.947,48.458 C258.79,47.514 258.621,46.919 258.483,46.828 C258.409,46.78 258.33,46.461 258.307,46.12 C258.284,45.779 258.206,45.5 258.133,45.5 C258.06,45.5 257.998,45.369 257.995,45.208 C257.987,44.715 257.412,43.144 257.286,43.27 C257.22,43.335 257.167,43.156 257.167,42.871 C257.167,42.586 257.092,42.307 257,42.25 C256.908,42.193 256.833,41.889 256.833,41.573 C256.833,41.258 256.758,41 256.667,41 C256.575,41 256.5,40.775 256.5,40.5 C256.5,40.225 256.435,40 256.355,40 C256.276,40 256.172,39.711 256.124,39.357 C256.056257,38.9333316 255.933905,38.5202261 255.76,38.128 C255.607,37.805 255.46,37.342 255.434,37.098 C255.408,36.853 255.3,36.567 255.194,36.46 C255.087,36.354 255,36.099 255,35.893 C255,35.688 254.925,35.473 254.833,35.417 C254.742,35.36 254.667,35.056 254.667,34.74 C254.667,34.425 254.592,34.167 254.5,34.167 C254.408,34.167 254.333,34.016 254.333,33.831 C254.333,33.646 254.267,33.365 254.186,33.206 C253.964,32.77 253.333,30.741 253.333,30.462 C253.333,29.654 252.843,29.5 250.272,29.5 L247.833,29.5 L247.833,30.26 M363.667,29.823 C363.667,30.001 363.742,30.193 363.833,30.25 C363.925,30.307 364,30.569 364,30.833 C364,31.098 364.075,31.36 364.167,31.417 C364.258,31.473 364.333,31.703 364.333,31.927 C364.333,32.15 364.408,32.333 364.5,32.333 C364.592,32.333 364.667,32.516 364.667,32.74 C364.667,32.964 364.742,33.193 364.833,33.25 C364.925,33.307 365,33.5 365,33.679 C365,33.858 365.07,34.135 365.156,34.294 C365.552,35.03 365.833,35.744 365.833,36.016 C365.833,36.18 365.908,36.36 366,36.417 C366.092,36.473 366.167,36.696 366.167,36.913 C366.167,37.129 366.239,37.331 366.328,37.361 C366.417,37.392 366.507,37.655 366.529,37.947 C366.551,38.238 366.629,38.44 366.701,38.395 C366.774,38.35 366.833,38.469 366.833,38.659 C366.833,38.849 366.899,39.135 366.98,39.294 C367.334,39.994 367.667,40.864 367.667,41.089 C367.667,41.223 367.742,41.333 367.833,41.333 C367.925,41.333 368,41.596 368,41.917 C368,42.237 368.061,42.5 368.137,42.5 C368.282,42.5 368.781,44.157 368.704,44.387 C368.679,44.463 368.735,44.477 368.829,44.419 C368.925,44.36 369,44.466 369,44.659 C369,44.849 369.067,45.135 369.15,45.294 C369.232,45.453 369.427,45.921 369.583,46.333 C369.74,46.746 369.935,47.214 370.017,47.373 C370.099,47.532 370.167,47.776 370.167,47.914 C370.167,48.053 370.242,48.167 370.333,48.167 C370.425,48.167 370.5,48.387 370.5,48.657 C370.5,48.926 370.575,49.193 370.667,49.25 C370.758,49.307 370.833,49.574 370.833,49.843 C370.833,50.113 370.908,50.333 371,50.333 C371.092,50.333 371.167,50.552 371.167,50.819 C371.167,51.087 371.223,51.331 371.292,51.361 C371.43,51.422 372.031,52.961 372.046,53.292 C372.051,53.406 372.118,53.5 372.194,53.5 C372.271,53.5 372.333,53.688 372.333,53.917 C372.333,54.146 372.408,54.333 372.5,54.333 C372.592,54.333 372.667,54.558 372.667,54.833 C372.667,55.108 372.725,55.333 372.797,55.333 C372.869,55.333 373.025,55.69 373.144,56.125 C373.264,56.56 373.426,57.067 373.506,57.25 C373.585,57.433 373.761,57.921 373.896,58.333 C374.389,59.837 374.635,60.167 375.262,60.167 C375.848,60.167 376.116,60.967 375.684,61.425 C375.601,61.512 375.492,61.883 375.44,62.25 C375.236,63.699 375.124,64.167 374.982,64.167 C374.9,64.167 374.833,64.387 374.833,64.657 C374.833,64.926 374.758,65.193 374.667,65.25 C374.575,65.307 374.5,65.536 374.5,65.76 C374.5,65.984 374.425,66.167 374.333,66.167 C374.242,66.167 374.167,66.282 374.167,66.422 C374.167,66.562 374.054,66.72 373.917,66.773 C373.779,66.826 373.667,66.962 373.667,67.075 C373.667,67.455 372.216,68.833 371.778,68.869 C371.547,68.888 371.394,68.963 371.439,69.035 C371.483,69.108 370.803,69.167 369.927,69.167 L368.333,69.167 L368.333,71.07 C368.333,73.716 368.096,73.5 371.004,73.5 C372.446,73.5 373.495,73.433 373.528,73.339 C373.558,73.25 373.827,73.159 374.125,73.137 C374.423,73.114 374.667,73.037 374.667,72.965 C374.667,72.892 374.747,72.833 374.844,72.833 C374.942,72.833 375.268,72.646 375.569,72.417 C375.869,72.188 376.185,72 376.271,72 C376.356,72 376.535,71.85 376.667,71.667 C376.799,71.483 376.99,71.333 377.092,71.333 C377.194,71.333 377.377,71.146 377.5,70.917 C377.623,70.688 377.785,70.5 377.861,70.5 C377.938,70.5 378,70.406 378,70.292 C378,70.177 378.188,69.865 378.417,69.599 C378.646,69.333 378.833,69.014 378.833,68.891 C378.833,68.768 378.908,68.667 379,68.667 C379.092,68.667 379.167,68.521 379.167,68.343 C379.167,68.165 379.242,67.973 379.333,67.917 C379.425,67.86 379.5,67.668 379.5,67.49 C379.5,67.312 379.575,67.167 379.667,67.167 C379.758,67.167 379.833,66.946 379.833,66.677 C379.833,66.407 379.908,66.14 380,66.083 C380.092,66.027 380.167,65.76 380.167,65.49 C380.167,65.221 380.242,65 380.333,65 C380.425,65 380.5,64.7 380.5,64.333 C380.5,63.967 380.575,63.667 380.667,63.667 C380.758,63.667 380.833,63.547 380.833,63.4 C380.833,63.254 380.934,62.897 381.058,62.609 C381.44,61.715 381.667,60.912 381.667,60.456 C381.667,60.216 381.742,59.973 381.833,59.917 C381.925,59.86 382,59.56 382,59.25 C382,58.94 382.075,58.64 382.167,58.583 C382.258,58.527 382.333,58.185 382.333,57.823 C382.333,57.462 382.408,57.167 382.5,57.167 C382.592,57.167 382.667,56.919 382.667,56.617 C382.667,56.314 382.751,55.982 382.855,55.878 C382.959,55.775 383.069,55.516 383.101,55.303 C383.194,54.679 383.527,53.44 383.686,53.127 C383.767,52.968 383.833,52.616 383.833,52.345 C383.833,52.075 383.908,51.807 384,51.75 C384.092,51.693 384.167,51.347 384.167,50.98 C384.167,50.578 384.233,50.355 384.333,50.417 C384.432,50.478 384.5,50.283 384.5,49.936 C384.5,49.616 384.575,49.307 384.667,49.25 C384.758,49.193 384.833,48.851 384.833,48.49 C384.833,48.129 384.891,47.833 384.96,47.833 C385.03,47.833 385.224,47.327 385.391,46.708 C385.557,46.09 385.763,45.411 385.847,45.2 C385.931,44.99 386,44.601 386,44.335 C386,44.07 386.075,43.807 386.167,43.75 C386.258,43.693 386.333,43.351 386.333,42.99 C386.333,42.629 386.408,42.333 386.5,42.333 C386.592,42.333 386.667,42.075 386.667,41.76 C386.667,41.444 386.742,41.14 386.833,41.083 C386.925,41.027 387,40.737 387,40.44 C387,40.143 387.071,39.829 387.157,39.742 C387.243,39.655 387.353,39.365 387.401,39.098 C387.449,38.831 387.566,38.534 387.661,38.439 C387.756,38.344 387.833,37.986 387.833,37.643 C387.833,37.3 387.908,36.973 388,36.917 C388.092,36.86 388.167,36.593 388.167,36.323 C388.167,36.054 388.226,35.833 388.299,35.833 C388.372,35.833 388.451,35.552 388.474,35.209 C388.497,34.865 388.587,34.513 388.675,34.425 C388.762,34.338 388.833,33.982 388.833,33.633 C388.833,33.285 388.908,33 389,33 C389.092,33 389.167,32.696 389.167,32.323 C389.167,31.951 389.232,31.687 389.311,31.736 C389.439,31.816 389.833,30.296 389.833,29.722 C389.833,29.547 389.298,29.5 387.286,29.5 L384.739,29.5 L384.453,29.984 C384.295,30.25 384.167,30.663 384.167,30.901 C384.167,31.139 384.092,31.333 384,31.333 C383.908,31.333 383.833,31.671 383.833,32.083 C383.833,32.496 383.758,32.833 383.667,32.833 C383.575,32.833 383.5,33.129 383.5,33.49 C383.5,33.851 383.425,34.193 383.333,34.25 C383.242,34.307 383.167,34.649 383.167,35.01 C383.167,35.371 383.092,35.667 383,35.667 C382.908,35.667 382.833,35.952 382.833,36.3 C382.833,36.648 382.761,37.006 382.672,37.095 C382.583,37.184 382.464,37.555 382.408,37.92 C382.351,38.285 382.237,38.655 382.153,38.742 C382.069,38.829 382,39.143 382,39.44 C382,39.737 381.933,40.022 381.852,40.072 C381.712,40.158 381.613,40.581 381.393,42.043 C381.341,42.387 381.231,42.71 381.149,42.761 C381.067,42.812 381,43.144 381,43.5 C381,43.856 380.925,44.193 380.833,44.25 C380.742,44.307 380.664,44.592 380.661,44.885 C380.658,45.177 380.546,45.562 380.411,45.74 C380.265175,45.9527084 380.180755,46.2014723 380.167,46.459 C380.167,46.677 380.095,46.99 380.007,47.154 C379.919,47.318 379.829,47.726 379.806,48.06 C379.784,48.394 379.706,48.667 379.633,48.667 C379.56,48.667 379.5,48.925 379.5,49.24 C379.5,49.556 379.425,49.86 379.333,49.917 C379.242,49.973 379.167,50.315 379.167,50.677 C379.167,51.038 379.092,51.333 379,51.333 C378.908,51.333 378.833,51.633 378.833,52 C378.833,52.367 378.758,52.667 378.667,52.667 C378.575,52.667 378.5,52.972 378.5,53.345 C378.5,53.726 378.39,54.133 378.25,54.274 C378.104216,54.4304039 378.016043,54.631792 378,54.845 C378,55.022 377.925,55.167 377.833,55.167 C377.742,55.167 377.667,54.946 377.667,54.677 C377.667,54.407 377.592,54.14 377.5,54.083 C377.408,54.027 377.333,53.802 377.333,53.583 C377.333,53.365 377.258,53.14 377.167,53.083 C377.075,53.027 377,52.854 376.999,52.698 C376.998,52.543 376.886,52.202 376.749,51.939 C376.612,51.677 376.5,51.358 376.5,51.231 C376.5,51.104 376.425,51 376.333,51 C376.242,51 376.167,50.737 376.167,50.417 C376.167,50.096 376.092,49.833 376,49.833 C375.908,49.833 375.832,49.702 375.831,49.542 C375.828,49.201 375.447,48.058 375.281,47.892 C375.218,47.829 375.167,47.607 375.167,47.399 C375.167,47.19 375.092,46.973 375,46.917 C374.908,46.86 374.833,46.598 374.833,46.333 C374.833,46.069 374.758,45.807 374.667,45.75 C374.575,45.693 374.5,45.507 374.5,45.335 C374.5,45.164 374.387,44.911 374.25,44.774 C374.113,44.636 374,44.293 374,44.012 C374,43.73 373.925,43.5 373.833,43.5 C373.742,43.5 373.667,43.281 373.667,43.014 C373.667,42.747 373.607,42.503 373.534,42.472 C373.461,42.442 373.19,41.76 372.931,40.958 C372.672,40.156 372.394,39.5 372.314,39.5 C372.233,39.5 372.167,39.349 372.167,39.164 C372.167,38.695 371.779,37.5 371.626,37.5 C371.557,37.5 371.5,37.279 371.5,37.01 C371.5,36.74 371.425,36.473 371.333,36.417 C371.242,36.36 371.167,36.146 371.167,35.94 C371.167,35.735 371.094,35.494 371.006,35.406 C370.917,35.317 370.826,35.007 370.804,34.717 C370.782,34.427 370.705,34.226 370.632,34.271 C370.559,34.316 370.5,34.213 370.5,34.042 C370.5,33.87 370.39,33.585 370.255,33.407 C370.121,33.229 370.008,32.877 370.005,32.625 C370.002,32.373 369.925,32.167 369.833,32.167 C369.742,32.167 369.667,31.984 369.667,31.76 C369.667,31.536 369.592,31.307 369.5,31.25 C369.408,31.193 369.333,30.968 369.333,30.75 C369.333,30.532 369.258,30.307 369.167,30.25 C369.075,30.193 369,30.001 369,29.823 C369,29.517 368.862,29.5 366.333,29.5 C363.805,29.5 363.667,29.517 363.667,29.823 M352.089,33.492 C352.035,33.579 352.274,33.697 352.62,33.754 C353.435,33.888 353.95,34.146 354.485,34.688 C355.173,35.386 355.333,35.631 355.333,35.983 C355.333,36.165 355.408,36.36 355.5,36.417 C355.592,36.473 355.667,36.928 355.667,37.427 C355.667,37.925 355.742,38.333 355.833,38.333 C355.933,38.333 356,39 356,40 L356,41.667 L339.632,41.667 L339.744,40.958 C339.806,40.569 339.895,39.613 339.942,38.835 C339.989,38.057 340.105,37.371 340.201,37.312 C340.297,37.253 340.395,37.02 340.42,36.795 C340.566,35.463 342.41,33.975 344.163,33.774 C344.574,33.727 344.936,33.608 344.969,33.511 C345.008,33.393 346.224,33.333 348.607,33.333 C350.824,33.333 352.149,33.394 352.089,33.492 M294.5,45.833 C294.5,45.925 294.8,46 295.167,46 C295.533,46 295.833,46.063 295.833,46.14 C295.833,46.218 296.083,46.416 296.389,46.58 C296.695,46.745 297.089,47.094 297.264,47.356 C297.44,47.618 297.64,47.833 297.708,47.833 C297.777,47.833 297.833,47.979 297.833,48.157 C297.833,48.335 297.908,48.527 298,48.583 C298.097,48.643 298.167,49.585 298.167,50.843 C298.167,52.17 298.103,53 298,53 C297.908,53 297.833,53.135 297.833,53.3 C297.833,53.558 297.338,54.124 296.137,55.24 C295.983,55.383 295.717,55.5 295.545,55.5 C295.374,55.5 295.162,55.567 295.075,55.65 C294.662,56.04 286.133,56.367 285.773,56.006 C285.678,55.911 285.426,55.833 285.214,55.833 C284.847,55.833 284.18,55.543 283.998,55.305 C283.952,55.244 283.804,55.169 283.67,55.138 C283.42,55.082 283.088,54.645 282.9,54.125 C282.842,53.965 282.728,53.833 282.647,53.833 C282.566,53.833 282.5,53.571 282.5,53.25 C282.5,52.929 282.425,52.667 282.333,52.667 C282.232,52.667 282.167,51.92 282.167,50.76 C282.167,49.668 282.238,48.809 282.333,48.75 C282.425,48.693 282.5,48.492 282.5,48.302 C282.5,47.836 283.136,46.833 283.43,46.833 C283.56,46.833 283.667,46.721 283.667,46.583 C283.667,46.444 283.815,46.333 284,46.333 C284.183,46.333 284.333,46.258 284.333,46.167 C284.333,46.075 284.554,46 284.823,46 C285.093,46 285.36,45.925 285.417,45.833 C285.481,45.729 287.196,45.667 290.01,45.667 C292.892,45.667 294.5,45.726 294.5,45.833" id="Shape" fill="#636363"></path>
            <path d="M5.75,0.113 C5.286,0.219 4.297,0.681 4.064,0.901 C3.70828413,1.22547484 3.32179043,1.51450783 2.91,1.764 C2.737,1.864 2.454,2.201 2.279,2.514 C2.105,2.827 1.913,3.121 1.852,3.167 C0.796,3.967 0.599,10.005 1.594,11.079 C1.817,11.32 2,11.612 2,11.727 C2,11.843 2.15,12.098 2.333,12.295 C2.517,12.492 2.667,12.716 2.667,12.794 C2.667,12.871 2.929,13.231 3.249,13.592 C4.105,14.559 4.167,14.639 4.167,14.79 C4.167,14.865 4.317,15.035 4.5,15.167 C4.683,15.299 4.833,15.507 4.833,15.629 C4.833,15.751 5.058,16.091 5.333,16.384 C5.607,16.677 5.832,16.97 5.833,17.036 C5.833,17.102 6.096,17.418 6.417,17.739 C6.737,18.06 7.001,18.418 7.002,18.536 C7.005,18.757 7.47,19.411 8.125,20.113 C8.331,20.334 8.5,20.587 8.5,20.674 C8.5,20.762 8.575,20.833 8.667,20.833 C8.758,20.833 8.833,20.931 8.833,21.051 C8.833,21.17 9.096,21.555 9.417,21.905 C9.737,22.255 10,22.596 10,22.663 C10,22.729 10.225,23.019 10.5,23.307 C10.775,23.595 11,23.892 11,23.967 C11,24.042 11.131,24.249 11.292,24.427 C11.452,24.605 11.804,25.05 12.075,25.417 C12.345,25.783 12.701,26.205 12.866,26.353 C13.032,26.501 13.167,26.745 13.167,26.895 C13.167,27.044 13.242,27.167 13.333,27.167 C13.425,27.167 13.5,27.263 13.5,27.38 C13.5,27.497 13.65,27.701 13.833,27.833 C14.017,27.965 14.167,28.159 14.167,28.263 C14.167,28.368 14.354,28.594 14.583,28.766 C14.813,28.938 15,29.174 15,29.29 C15,29.405 15.075,29.5 15.167,29.5 C15.258,29.5 15.333,29.633 15.333,29.797 C15.333,29.96 15.483,30.201 15.667,30.333 C15.85,30.465 16,30.663 16,30.772 C16,30.882 16.262,31.242 16.583,31.572 C16.904,31.902 17.167,32.235 17.167,32.312 C17.167,32.388 17.392,32.686 17.667,32.974 C17.942,33.262 18.167,33.557 18.167,33.63 C18.167,33.704 18.41,34.025 18.708,34.344 C19.006,34.663 19.362,35.145 19.5,35.415 C19.754,35.913 20.212,36.488 21.042,37.347 C21.294,37.608 21.5,37.926 21.5,38.053 C21.5,38.18 21.725,38.519 22,38.807 C22.275,39.095 22.5,39.395 22.5,39.474 C22.5,39.553 22.688,39.82 22.917,40.068 C23.146,40.315 23.333,40.577 23.333,40.651 C23.333,40.724 23.558,41.019 23.833,41.307 C24.108,41.595 24.333,41.901 24.333,41.987 C24.333,42.073 24.58,42.404 24.88,42.723 C25.181,43.042 25.531,43.497 25.659,43.735 C25.786,43.972 25.952,44.167 26.028,44.167 C26.104,44.167 26.167,44.279 26.167,44.417 C26.167,44.554 26.237,44.667 26.322,44.667 C26.408,44.667 26.522,44.808 26.577,44.98 C26.709,45.397 27.242,46 27.478,46 C27.582,46 27.667,46.15 27.667,46.333 C27.667,46.517 27.742,46.667 27.833,46.667 C27.925,46.667 28,46.763 28,46.88 C28,46.997 28.15,47.201 28.333,47.333 C28.517,47.465 28.667,47.681 28.667,47.812 C28.667,47.943 28.929,48.305 29.25,48.616 C29.571,48.928 29.833,49.275 29.833,49.388 C29.833,49.501 29.983,49.701 30.167,49.833 C30.35,49.965 30.5,50.152 30.5,50.248 C30.5,50.344 30.781,50.768 31.125,51.19 C31.469,51.612 31.955,52.211 32.205,52.52 C32.456,52.83 32.662,53.177 32.664,53.292 C32.665,53.406 32.729,53.5 32.805,53.5 C32.881,53.5 33.044,53.688 33.167,53.917 C33.289,54.146 33.489,54.333 33.611,54.333 C33.734,54.333 33.833,54.445 33.833,54.581 C33.833,54.809 34.096,55.199 34.625,55.757 C34.74,55.877 34.833,56.046 34.833,56.131 C34.833,56.217 35.096,56.565 35.417,56.905 C35.737,57.245 36,57.582 36,57.654 C36,57.725 36.225,58.019 36.5,58.307 C36.775,58.595 37,58.943 37,59.082 C37,59.22 37.059,59.333 37.131,59.333 C37.203,59.333 37.384,59.541 37.534,59.794 C37.684,60.048 38.037,60.497 38.32,60.793 C38.602,61.088 38.833,61.405 38.833,61.497 C38.833,61.588 38.965,61.82 39.125,62.012 C39.705,62.707 39.922,62.981 40.25,63.431 C40.433,63.682 40.677,63.983 40.792,64.099 C40.906,64.215 41,64.375 41,64.456 C41,64.536 41.262,64.897 41.582,65.259 C42.438,66.226 42.5,66.306 42.5,66.456 C42.5,66.531 42.65,66.701 42.833,66.833 C43.017,66.965 43.167,67.174 43.167,67.296 C43.167,67.418 43.391,67.758 43.666,68.051 C43.94,68.344 44.165,68.637 44.166,68.703 C44.166,68.768 44.429,69.085 44.75,69.406 C45.071,69.726 45.334,70.085 45.336,70.203 C45.338,70.424 45.804,71.078 46.458,71.78 C46.665,72.001 46.833,72.253 46.833,72.341 C46.833,72.428 46.908,72.5 47,72.5 C47.092,72.5 47.167,72.612 47.167,72.75 C47.167,72.887 47.242,73 47.333,73 C47.378266,73.0007862 47.4213486,73.0195956 47.4526976,73.0522586 C47.4840466,73.0849216 47.5010721,73.1287399 47.5,73.174 C47.5,73.27 47.688,73.536 47.917,73.765 C48.146,73.994 48.334,74.235 48.334,74.299 C48.335,74.364 48.56,74.656 48.834,74.949 C49.109,75.242 49.333,75.547 49.333,75.626 C49.333,75.706 49.465,75.916 49.625,76.094 C49.785,76.271 50.138,76.717 50.408,77.083 C50.678,77.45 51.035,77.871 51.2,78.02 C51.365,78.168 51.5,78.412 51.5,78.561 C51.5,78.711 51.575,78.833 51.667,78.833 C51.758,78.833 51.833,78.912 51.833,79.008 C51.833,79.196 52.583,80 52.759,80 C52.818,80 53.065,80.208 53.308,80.461 C53.851,81.028 54.573,81.5 54.897,81.5 C55.03,81.5 55.17,81.594 55.208,81.708 C55.48,82.524 62.281,81.764 62.62,80.881 C62.665,80.763 62.788,80.667 62.894,80.667 C63.119,80.667 64.5,79.399 64.5,79.192 C64.5,79.113 64.725,78.814 65,78.526 C65.275,78.238 65.5,77.924 65.5,77.827 C65.5,77.73 65.688,77.477 65.917,77.265 C66.146,77.052 66.333,76.786 66.333,76.673 C66.333,76.56 66.558,76.257 66.833,76 C67.108,75.743 67.333,75.419 67.333,75.28 C67.333,75.141 67.39,75.003 67.458,74.972 C67.592,74.913 68.202,74.175 68.75,73.41 C68.9167955,73.1738874 69.0977962,72.9481373 69.292,72.734 C69.406,72.619 69.5,72.44 69.5,72.338 C69.5,72.235 69.669,71.978 69.875,71.767 C70.501,71.125 71,70.505 71,70.369 C71,70.298 71.15,70.132 71.333,70 C71.517,69.868 71.667,69.663 71.667,69.545 C71.667,69.427 71.892,69.095 72.167,68.807 C72.442,68.519 72.667,68.223 72.667,68.15 C72.667,68.076 72.854,67.828 73.083,67.598 C73.313,67.369 73.5,67.082 73.5,66.961 C73.5,66.84 73.65,66.632 73.833,66.5 C74.017,66.368 74.167,66.198 74.167,66.123 C74.167,65.977 74.359,65.724 74.958,65.083 C75.165,64.862 75.333,64.603 75.333,64.508 C75.333,64.412 75.408,64.333 75.5,64.333 C75.592,64.333 75.667,64.235 75.667,64.116 C75.667,63.996 75.91,63.628 76.208,63.298 C76.506,62.967 76.9,62.49 77.083,62.237 C77.267,61.985 77.51,61.684 77.625,61.568 C77.74,61.452 77.833,61.256 77.833,61.132 C77.833,61.008 77.983,60.799 78.167,60.667 C78.35,60.535 78.5,60.369 78.5,60.298 C78.5,60.227 78.646,60 78.823,59.793 C79.83,58.622 80,58.405 80,58.285 C80,58.212 80.15,57.992 80.333,57.795 C80.517,57.598 80.667,57.301 80.667,57.135 C80.667,56.969 80.752,56.833 80.856,56.833 C81.061,56.833 81.833,56.002 81.833,55.78 C81.833,55.704 81.927,55.548 82.042,55.432 C82.2348239,55.219746 82.4154476,54.9967208 82.583,54.764 C82.767,54.512 83.079,54.114 83.277,53.878 C83.475,53.642 83.737,53.255 83.859,53.016 C83.981,52.778 84.198,52.471 84.341,52.333 C84.484,52.196 84.822,51.783 85.092,51.417 C85.362,51.05 85.715,50.605 85.875,50.427 C86.035,50.249 86.167,50.022 86.167,49.922 C86.167,49.822 86.317,49.632 86.5,49.5 C86.683,49.368 86.833,49.198 86.833,49.123 C86.833,48.977 87.026,48.724 87.625,48.083 C87.831,47.862 88,47.582 88,47.461 C88,47.34 88.15,47.132 88.333,47 C88.517,46.868 88.667,46.664 88.667,46.547 C88.667,46.429 88.742,46.333 88.833,46.333 C88.925,46.333 89,46.183 89,46 C89,45.817 89.08,45.667 89.179,45.667 C89.411,45.667 89.692,45.362 89.986,44.792 C90.117,44.54 90.285,44.333 90.361,44.333 C90.438,44.333 90.5,44.221 90.5,44.083 C90.5,43.946 90.562,43.833 90.639,43.833 C90.715,43.833 90.881,43.639 91.008,43.402 C91.135,43.164 91.485,42.709 91.786,42.39 C92.087,42.071 92.333,41.739 92.333,41.653 C92.333,41.567 92.558,41.262 92.833,40.974 C93.108,40.686 93.333,40.312 93.333,40.142 C93.333,39.972 93.418,39.833 93.522,39.833 C93.721,39.833 94.499,39.005 94.5,38.794 C94.5,38.675 94.858,38.2 95.292,37.743 C95.406,37.623 95.5,37.435 95.5,37.328 C95.5,37.22 95.688,36.984 95.917,36.804 C96.146,36.623 96.333,36.369 96.333,36.238 C96.333,36.107 96.408,36 96.5,36 C96.592,36 96.667,35.904 96.667,35.787 C96.667,35.67 96.817,35.465 97,35.333 C97.183,35.201 97.333,34.976 97.333,34.833 C97.333,34.69 97.49,34.463 97.681,34.328 C97.872,34.194 98.139,33.871 98.275,33.612 C98.411,33.353 98.742,32.91 99.011,32.629 C99.28,32.347 99.5,32.016 99.5,31.892 C99.5,31.768 99.575,31.667 99.667,31.667 C99.758,31.667 99.833,31.584 99.833,31.482 C99.833,31.381 100.021,31.15 100.25,30.97 C100.479,30.79 100.667,30.552 100.667,30.441 C100.667,30.331 100.817,30.132 101,30 C101.183,29.868 101.333,29.664 101.333,29.547 C101.333,29.429 101.408,29.333 101.5,29.333 C101.592,29.333 101.667,29.228 101.667,29.1 C101.667,28.972 101.91,28.606 102.208,28.287 C102.963,27.48 103.167,27.208 103.167,27.007 C103.165927,26.9619097 103.182816,26.9182409 103.213949,26.8856068 C103.245083,26.8529727 103.287909,26.8340485 103.333,26.833 C103.425,26.833 103.5,26.711 103.5,26.56 C103.5,26.41 103.763,26.063 104.083,25.789 C104.404,25.515 104.667,25.15 104.667,24.979 C104.667,24.807 104.742,24.667 104.833,24.667 C104.925,24.667 105,24.254 105,23.749 C105,22.746 104.431,21.833 103.806,21.833 C103.638,21.833 103.5,21.758 103.5,21.667 C103.5,21.387 97.889,21.447 97.782,21.728 C97.733,21.853 97.519,21.998 97.305,22.05 C95.821,22.408 95.283,22.553 94.25,22.873 C91.38,23.76 86.5,27.108 86.5,28.19 C86.5,28.44 86.751,28.345 87,28 C87.156,27.783 87.431,27.667 87.787,27.667 C88.087,27.667 88.333,27.592 88.333,27.5 C88.333,27.395 89.504,27.333 91.512,27.333 C95.477,27.333 95.646,27.417 94.375,28.757 C94.26,28.877 94.167,29.077 94.167,29.201 C94.167,29.325 94.017,29.535 93.833,29.667 C93.65,29.799 93.5,29.969 93.5,30.044 C93.5,30.19 93.308,30.443 92.708,31.084 C92.502,31.304 92.333,31.564 92.333,31.661 C92.333,31.757 92.108,32.072 91.833,32.36 C91.558,32.647 91.333,33.022 91.333,33.191 C91.333,33.361 91.248,33.5 91.145,33.5 C90.948,33.5 90.333,34.131 90.333,34.333 C90.333,34.397 90.202,34.604 90.042,34.794 C89.881,34.983 89.619,35.296 89.458,35.488 C89.298,35.68 89.167,35.949 89.167,36.085 C89.167,36.222 89.073,36.334 88.958,36.335 C88.776,36.337 88,37.347 88,37.583 C88,37.63 87.775,37.905 87.5,38.193 C87.225,38.481 87,38.775 87,38.846 C87,38.918 86.737,39.255 86.417,39.595 C86.096,39.935 85.833,40.299 85.833,40.403 C85.833,40.508 85.683,40.701 85.5,40.833 C85.317,40.965 85.167,41.164 85.167,41.275 C85.167,41.386 84.904,41.755 84.583,42.095 C84.263,42.435 84,42.777 84,42.855 C84,42.989 83.662,43.445 83.208,43.923 C83.094,44.044 83,44.217 83,44.309 C83,44.4 82.794,44.691 82.542,44.955 C81.909,45.619 81.5,46.146 81.5,46.298 C81.5,46.369 81.35,46.535 81.167,46.667 C80.983,46.799 80.833,46.992 80.833,47.097 C80.833,47.201 80.571,47.565 80.25,47.905 C79.929,48.245 79.667,48.594 79.667,48.68 C79.667,48.766 79.442,49.072 79.167,49.36 C78.892,49.647 78.667,49.979 78.667,50.096 C78.667,50.213 78.479,50.457 78.25,50.637 C78.021,50.817 77.833,51.069 77.833,51.196 C77.833,51.323 77.683,51.535 77.5,51.667 C77.317,51.799 77.167,52.003 77.167,52.12 C77.167,52.237 77.092,52.333 77,52.333 C76.908,52.333 76.833,52.447 76.833,52.586 C76.833,52.725 76.59,53.092 76.292,53.401 C75.587,54.131 75.333,54.454 75.333,54.623 C75.333,54.698 75.183,54.868 75,55 C74.817,55.132 74.667,55.357 74.667,55.5 C74.667,55.643 74.51,55.87 74.319,56.005 C74.128,56.14 73.861,56.462 73.725,56.721 C73.589,56.981 73.258,57.423 72.989,57.704 C72.72,57.986 72.5,58.317 72.5,58.441 C72.5,58.565 72.425,58.667 72.333,58.667 C72.242,58.667 72.167,58.75 72.167,58.851 C72.167,58.952 71.979,59.183 71.75,59.363 C71.521,59.543 71.333,59.781 71.333,59.892 C71.333,60.003 71.183,60.201 71,60.333 C70.817,60.465 70.667,60.67 70.667,60.787 C70.667,60.904 70.592,61 70.5,61 C70.408,61 70.333,61.116 70.333,61.258 C70.333,61.399 70.165,61.698 69.958,61.922 C68.971,62.995 68.833,63.167 68.833,63.327 C68.834676,63.4205118 68.7605013,63.4978144 68.667,63.5 C68.575,63.5 68.5,63.611 68.5,63.747 C68.5,63.883 68.238,64.264 67.917,64.595 C67.596,64.925 67.333,65.265 67.333,65.349 C67.333,65.434 67.108,65.738 66.833,66.026 C66.558,66.314 66.333,66.612 66.333,66.689 C66.333,66.767 66.202,66.987 66.042,67.179 C65.462,67.873 65.244,68.147 64.917,68.597 C64.7491239,68.8300655 64.5681667,69.053424 64.375,69.266 C64.26,69.381 64.167,69.558 64.167,69.658 C64.167,69.758 63.923,70.092 63.625,70.401 C62.887,71.165 62.667,71.455 62.667,71.66 C62.6678027,71.7050888 62.6506574,71.7486491 62.6193374,71.7810944 C62.5880173,71.8135398 62.5450891,71.8322113 62.5,71.833 C62.408,71.833 62.333,71.948 62.333,72.089 C62.333,72.229 62.071,72.607 61.75,72.928 C61.429,73.249 61.166,73.565 61.166,73.631 C61.166,73.696 60.941,74.012 60.667,74.333 C60.392,74.654 60.167,74.98 60.167,75.058 C60.167,75.182 59.753,75.593 58.927,76.292 C58.609,76.56 57.706,76.56 57.425,76.292 C57.2443645,76.1288554 57.0536553,75.9772232 56.854,75.838 C56.659,75.703 56.5,75.508 56.5,75.405 C56.5,75.301 56.275,74.981 56,74.693 C55.725,74.405 55.5,74.097 55.5,74.009 C55.5,73.921 55.313,73.661 55.083,73.432 C54.854,73.203 54.666,72.955 54.666,72.883 C54.666,72.81 54.441,72.487 54.167,72.167 C53.892,71.846 53.667,71.53 53.667,71.464 C53.667,71.398 53.404,71.082 53.083,70.761 C52.762,70.44 52.5,70.063 52.5,69.922 C52.5,69.782 52.425,69.667 52.333,69.667 C52.2394987,69.6648144 52.165324,69.5875118 52.167,69.494 C52.167,69.333 52.028,69.157 51.042,68.066 C50.835,67.838 50.667,67.58 50.667,67.492 C50.6642769,67.4022063 50.5898192,67.3313154 50.5,67.333 C50.408,67.333 50.333,67.232 50.333,67.108 C50.333,66.984 50.108,66.647 49.833,66.36 C49.558,66.072 49.333,65.776 49.333,65.703 C49.333,65.63 49.071,65.291 48.75,64.951 C48.429,64.611 48.167,64.237 48.167,64.12 C48.167,64.003 48.017,63.799 47.833,63.667 C47.65,63.535 47.5,63.336 47.5,63.225 C47.5,63.114 47.238,62.745 46.917,62.405 C46.596,62.065 46.333,61.723 46.333,61.645 C46.333,61.567 46.202,61.347 46.042,61.155 L45.375,60.361 C45.169,60.117 45,59.823 45,59.708 C45,59.594 44.92,59.5 44.821,59.5 C44.565,59.5 44.167,59.065 44.167,58.787 C44.167,58.656 43.942,58.314 43.667,58.026 C43.392,57.738 43.167,57.443 43.167,57.37 C43.167,57.296 42.904,56.958 42.583,56.618 C42.263,56.278 42,55.924 42,55.831 C42,55.739 41.775,55.428 41.5,55.14 C41.225,54.853 41,54.521 41,54.404 C41,54.287 40.831,54.052 40.625,53.882 C40.3803862,53.6668915 40.1696751,53.416061 40,53.138 C39.5957043,52.4337862 39.1059991,51.7821894 38.542,51.198 C38.244,50.888 38,50.528 38,50.4 C38,50.272 37.925,50.167 37.833,50.167 C37.742,50.167 37.667,50.071 37.667,49.953 C37.667,49.836 37.517,49.632 37.333,49.5 C37.15,49.368 37,49.169 37,49.058 C37,48.948 36.738,48.579 36.417,48.239 C36.096,47.898 35.833,47.567 35.833,47.501 C35.833,47.436 35.608,47.147 35.333,46.86 C35.058,46.572 34.833,46.231 34.833,46.102 C34.833,45.973 34.571,45.637 34.25,45.356 C33.929,45.074 33.667,44.729 33.667,44.588 C33.667,44.448 33.604,44.333 33.528,44.333 C33.452,44.333 33.283,44.127 33.153,43.875 C33.023,43.623 32.842,43.335 32.75,43.236 C32.5740072,43.0287393 32.4071805,42.8138665 32.25,42.592 C32.0811938,42.3554882 31.9002862,42.1278517 31.708,41.91 C31.594,41.789 31.5,41.627 31.5,41.549 C31.5,41.471 31.35,41.299 31.167,41.167 C30.983,41.035 30.833,40.845 30.833,40.745 C30.833,40.645 30.7,40.417 30.537,40.24 C30.2601733,39.920997 29.9966161,39.5907165 29.747,39.25 C29.476,38.883 29.122,38.462 28.96,38.314 C28.799,38.166 28.667,37.965 28.667,37.867 C28.667,37.77 28.42,37.429 28.12,37.11 C27.819,36.791 27.469,36.336 27.341,36.098 C27.214,35.861 27.048,35.667 26.972,35.667 C26.896,35.667 26.833,35.554 26.833,35.417 C26.833,35.279 26.758,35.167 26.667,35.167 C26.575,35.167 26.5,35.073 26.5,34.958 C26.5,34.682 25.762,33.833 25.522,33.833 C25.418,33.833 25.333,33.697 25.333,33.531 C25.333,33.365 25.183,33.069 25,32.872 C24.817,32.675 24.667,32.45 24.667,32.373 C24.667,32.295 24.405,31.936 24.084,31.574 C23.244,30.626 23.167,30.526 23.167,30.402 C23.167,30.34 23.035,30.168 22.874,30.02 C22.6638527,29.8040326 22.4860152,29.5588324 22.346,29.292 C22.216,29.04 22.048,28.833 21.972,28.833 C21.896,28.833 21.833,28.729 21.833,28.601 C21.833,28.473 21.721,28.326 21.583,28.273 C21.446,28.22 21.333,28.092 21.333,27.989 C21.333,27.885 21.127,27.602 20.875,27.359 C20.623,27.116 20.316,26.722 20.194,26.484 C20.0265205,26.1791569 19.8310093,25.890577 19.61,25.622 C19.412,25.386 19.1,24.988 18.917,24.736 C18.74916,24.5032255 18.5682004,24.2801977 18.375,24.068 C18.26,23.952 18.167,23.796 18.166,23.72 C18.166,23.645 17.979,23.365 17.75,23.099 C17.521,22.833 17.333,22.57 17.333,22.516 C17.332,22.461 17.107,22.177 16.833,21.884 C16.558,21.591 16.333,21.286 16.333,21.207 C16.333,21.128 16.202,20.917 16.042,20.74 C15.7686808,20.4199331 15.5074962,20.0896997 15.259,19.75 C14.988,19.383 14.651,18.971 14.509,18.833 C14.3129986,18.6236426 14.1421702,18.3920677 14,18.143 C13.6368155,17.5084303 13.2034259,16.9167126 12.708,16.379 C12.502,16.162 12.333,15.913 12.333,15.826 C12.3308154,15.7363646 12.2566464,15.6653232 12.167,15.667 C12.075,15.667 12,15.565 12,15.441 C12,15.317 11.775,14.981 11.5,14.693 C11.225,14.405 11,14.112 11,14.041 C11,13.971 10.813,13.711 10.583,13.464 C10.354,13.217 10.167,12.947 10.167,12.865 C10.167,12.783 9.942,12.481 9.667,12.193 C9.392,11.905 9.167,11.6 9.167,11.516 C9.167,11.431 8.923,11.109 8.625,10.8 C8.327,10.49 7.977,10.034 7.847,9.785 C7.717,9.537 7.548,9.333 7.472,9.333 C7.396,9.333 7.333,9.255 7.333,9.16 C7.333,9.064 7.183,8.825 7,8.628 C6.817,8.431 6.667,8.138 6.667,7.977 C6.65416777,7.7942843 6.5540111,7.62896995 6.398,7.533 C6.152,7.395 6.152,7.375 6.398,7.28 C6.546,7.223 6.667,7.021 6.667,6.831 C6.667,6.39 7.299,5.753 7.882,5.607 C8.13,5.545 8.333,5.42 8.333,5.33 C8.333,5.224 25.701,5.167 58.167,5.167 C90.633,5.167 108,5.224 108,5.33 C108,5.42 108.206,5.543 108.458,5.603 C109.4,5.826 110.637,7.833 109.833,7.833 C109.742,7.833 109.667,7.951 109.667,8.095 C109.651862,8.27418504 109.578454,8.44348091 109.458,8.577 C108.977,9.084 108.667,9.515 108.667,9.676 C108.667,9.911 107.895,10.667 107.655,10.667 C107.541,10.667 107.498,10.809 107.552,11.013 C107.991,12.693 100.459,16.628 95.292,17.419 C94.948,17.472 94.667,17.587 94.667,17.674 C94.667,17.896 106.946,17.889 107.083,17.667 C107.14,17.575 107.407,17.5 107.677,17.5 C107.946,17.5 108.167,17.425 108.167,17.333 C108.167,17.242 108.378,17.167 108.635,17.167 C108.893,17.167 109.249,17.032 109.427,16.867 C109.605,16.702 109.881,16.516 110.042,16.455 C110.202,16.394 110.333,16.266 110.333,16.172 C110.333,16.077 110.446,16 110.583,16 C110.721,16 110.833,15.925 110.833,15.833 C110.833,15.742 110.931,15.667 111.051,15.667 C111.276,15.667 112.5,14.622 112.5,14.429 C112.5,14.309 112.718,14.029 113.292,13.416 C113.498,13.196 113.667,12.937 113.667,12.841 C113.665927,12.7959097 113.682816,12.7522409 113.713949,12.7196068 C113.745083,12.6869727 113.787909,12.6680485 113.833,12.667 C113.925,12.667 114,12.554 114,12.417 C114,12.279 114.075,12.167 114.167,12.167 C114.258,12.167 114.333,12.054 114.333,11.917 C114.333,11.779 114.408,11.667 114.5,11.667 C114.592,11.667 114.667,11.517 114.667,11.333 C114.667,11.15 114.723,11 114.792,10.999 C115.04,10.997 115.5,9.96 115.5,9.403 C115.5,9.09 115.575,8.833 115.667,8.833 C115.765,8.833 115.833,8.226 115.833,7.343 C115.833,6.524 115.758,5.807 115.667,5.75 C115.575,5.693 115.5,5.389 115.5,5.073 C115.5,4.758 115.431,4.5 115.347,4.5 C115.262,4.5 115.147,4.29 115.09,4.032 C115.034,3.775 114.84,3.459 114.661,3.329 C114.481,3.199 114.333,2.967 114.333,2.813 C114.333,2.463 113.222,1.333 112.878,1.333 C112.737,1.333 112.501,1.2 112.353,1.037 C111.396,-0.014 116.869,0.086 58.583,0.06 C29.708,0.047 5.933,0.071 5.75,0.113 M202.333,24.328 C202.333,31.218 202.303,32.145 202.083,32.06 C201.946,32.008 201.833,31.853 201.833,31.717 C201.833,31.58 201.683,31.43 201.5,31.382 C201.317,31.334 201.167,31.205 201.167,31.095 C201.167,30.876 199.944,30.167 199.568,30.167 C199.439,30.167 199.333,30.092 199.333,30 C199.333,29.908 199.146,29.833 198.917,29.833 C198.688,29.833 198.5,29.758 198.5,29.667 C198.5,29.575 198.125,29.5 197.667,29.5 C197.208,29.5 196.833,29.425 196.833,29.333 C196.833,29.227 195.417,29.167 192.917,29.167 C190.417,29.167 189,29.227 189,29.333 C189,29.425 188.662,29.5 188.25,29.5 C187.838,29.5 187.5,29.575 187.5,29.667 C187.5,29.758 187.279,29.833 187.01,29.833 C186.74,29.833 186.473,29.908 186.417,30 C186.36,30.092 186.168,30.167 185.99,30.167 C185.812,30.167 185.667,30.242 185.667,30.333 C185.667,30.425 185.544,30.5 185.394,30.5 C185.244,30.5 184.948,30.688 184.735,30.917 C184.523,31.146 184.278,31.333 184.191,31.333 C183.954,31.333 182.833,32.501 182.833,32.749 C182.833,32.867 182.732,33.003 182.609,33.051 C182.334,33.156 181.667,34.536 181.667,34.998 C181.667,35.183 181.592,35.333 181.5,35.333 C181.408,35.333 181.333,35.554 181.333,35.823 C181.333,36.093 181.258,36.36 181.167,36.417 C181.075,36.473 181,36.965 181,37.51 C181,38.059 180.926,38.5 180.833,38.5 C180.725,38.5 180.667,40.694 180.667,44.75 C180.667,48.806 180.725,51 180.833,51 C180.927,51 181,51.472 181,52.083 C181,52.694 181.073,53.167 181.167,53.167 C181.258,53.167 181.333,53.429 181.333,53.75 C181.333,54.071 181.408,54.333 181.5,54.333 C181.592,54.333 181.667,54.469 181.667,54.635 C181.667,55.078 182.31,56.335 182.591,56.443 C182.724,56.494 182.833,56.639 182.833,56.766 C182.833,57.014 183.228,57.552 183.727,57.982 C183.898,58.129 184.136,58.344 184.257,58.458 C184.377,58.573 184.594,58.667 184.738,58.667 C184.882,58.667 185,58.742 185,58.833 C185,58.925 185.15,59 185.333,59 C185.517,59 185.667,59.07 185.667,59.154 C185.667,59.374 186.643,59.833 187.109,59.833 C187.324,59.833 187.5,59.908 187.5,60 C187.5,60.092 187.838,60.167 188.25,60.167 C188.662,60.167 189,60.242 189,60.333 C189,60.44 190.417,60.5 192.917,60.5 C195.417,60.5 196.833,60.44 196.833,60.333 C196.833,60.242 197.097,60.167 197.419,60.167 C197.741,60.167 198.135,60.099 198.294,60.017 C198.453,59.935 198.902,59.736 199.292,59.575 C199.681,59.414 200,59.219 200,59.141 C200,59.064 200.112,59 200.25,59 C200.387,59 200.5,58.943 200.5,58.874 C200.5,58.805 200.721,58.65 200.99,58.531 C201.26,58.412 201.578,58.095 201.696,57.826 C202.14,56.825 202.333,57.082 202.333,58.672 L202.333,60.167 L207.333,60.167 L207.333,16.5 L202.333,16.5 L202.333,24.328 M125.333,29.333 C125.333,29.425 124.921,29.5 124.417,29.5 C123.912,29.5 123.5,29.575 123.5,29.667 C123.5,29.758 123.237,29.833 122.917,29.833 C122.596,29.833 122.333,29.908 122.333,30 C122.333,30.092 122.183,30.167 122,30.167 C121.817,30.167 121.667,30.242 121.667,30.333 C121.667,30.425 121.549,30.5 121.406,30.5 C120.854,30.5 118.314,32.773 118.095,33.463 C118.03,33.667 117.908,33.833 117.822,33.833 C117.737,33.833 117.667,34.021 117.667,34.25 C117.667,34.479 117.592,34.667 117.5,34.667 C117.408,34.667 117.333,34.887 117.333,35.157 C117.333,35.426 117.258,35.693 117.167,35.75 C117.075,35.807 117,36.191 117,36.605 C117,37.051 116.898,37.459 116.75,37.607 C116.563,37.794 116.5,38.253 116.5,39.419 C116.5,40.28 116.425,41.027 116.333,41.083 C116.231,41.147 116.167,42.53 116.167,44.677 C116.167,46.892 116.228,48.167 116.333,48.167 C116.436,48.167 116.5,48.974 116.5,50.255 C116.5,51.958 116.546,52.362 116.75,52.44 C116.929,52.509 117,52.789 117,53.434 C117,53.929 117.075,54.333 117.167,54.333 C117.258,54.333 117.333,54.558 117.333,54.833 C117.333,55.108 117.408,55.333 117.5,55.333 C117.592,55.333 117.667,55.483 117.667,55.667 C117.667,55.85 117.742,56 117.833,56 C117.925,56 118,56.08 118,56.179 C118,56.277 118.094,56.46 118.208,56.585 C118.323,56.711 118.604,57.076 118.833,57.397 C119.063,57.718 119.438,58.079 119.667,58.199 C119.896,58.319 120.229,58.548 120.406,58.708 C120.584,58.869 120.833,59 120.96,59 C121.087,59 121.303,59.112 121.44,59.25 C121.578,59.387 121.831,59.5 122.002,59.5 C122.173,59.5 122.36,59.575 122.417,59.667 C122.473,59.758 122.74,59.833 123.01,59.833 C123.279,59.833 123.5,59.908 123.5,60 C123.5,60.092 123.908,60.167 124.407,60.167 C124.906,60.167 125.36,60.242 125.417,60.333 C125.481,60.438 127.248,60.5 130.167,60.5 C133.085,60.5 134.852,60.438 134.917,60.333 C134.973,60.242 135.386,60.167 135.833,60.167 C136.281,60.167 136.693,60.092 136.75,60 C136.807,59.908 137.015,59.833 137.213,59.833 C137.688,59.833 139,59.327 139,59.144 C139,59.065 139.133,59 139.297,59 C139.46,59 139.701,58.85 139.833,58.667 C139.965,58.483 140.155,58.333 140.254,58.333 C140.477,58.333 141.5,57.296 141.5,57.071 C141.5,56.981 141.65,56.799 141.833,56.667 C142.017,56.535 142.167,56.302 142.167,56.15 C142.167,55.998 142.279,55.781 142.417,55.667 C142.554,55.553 142.667,55.281 142.667,55.063 C142.667,54.845 142.742,54.667 142.833,54.667 C142.925,54.667 143,54.259 143,53.76 C143,53.261 143.075,52.807 143.167,52.75 C143.263,52.691 143.333,51.802 143.333,50.653 L143.333,48.658 L140.625,48.704 L137.917,48.75 L137.87,50.875 C137.843,52.105 137.755,53 137.662,53 C137.573,53 137.5,53.225 137.5,53.5 C137.5,53.775 137.425,54 137.333,54 C137.242,54 137.167,54.1 137.167,54.223 C137.167,54.517 136.08,55.5 135.754,55.5 C135.614,55.5 135.5,55.575 135.5,55.667 C135.5,55.758 135.162,55.833 134.75,55.833 C134.337,55.833 134,55.908 134,56 C134,56.106 132.778,56.167 130.667,56.167 C128.556,56.167 127.333,56.106 127.333,56 C127.333,55.908 126.963,55.833 126.51,55.833 C126.057,55.833 125.64,55.758 125.583,55.667 C125.527,55.575 125.335,55.5 125.157,55.5 C124.979,55.5 124.833,55.425 124.833,55.333 C124.833,55.242 124.683,55.167 124.5,55.167 C124.317,55.167 124.167,55.101 124.167,55.021 C124.167,54.942 123.905,54.698 123.584,54.48 C123.264,54.262 123.002,53.99 123.001,53.875 C123.001,53.76 122.925,53.667 122.833,53.667 C122.742,53.667 122.667,53.517 122.667,53.333 C122.667,53.15 122.592,53 122.5,53 C122.408,53 122.333,52.779 122.333,52.51 C122.333,52.24 122.258,51.973 122.167,51.917 C122.074,51.859 122,51.085 122,50.167 C122,49.248 121.926,48.474 121.833,48.417 C121.731,48.354 121.667,47.029 121.667,45 C121.667,42.971 121.731,41.646 121.833,41.583 C121.929,41.524 122,40.665 122,39.573 C122,38.413 122.065,37.667 122.167,37.667 C122.258,37.667 122.333,37.481 122.333,37.255 C122.333,37.029 122.483,36.576 122.667,36.25 C122.85,35.924 123,35.546 123,35.412 C123,35.277 123.096,35.167 123.213,35.167 C123.33,35.167 123.535,35.017 123.667,34.833 C123.799,34.65 124.04,34.5 124.203,34.5 C124.367,34.5 124.5,34.425 124.5,34.333 C124.5,34.242 124.65,34.167 124.833,34.167 C125.017,34.167 125.167,34.092 125.167,34 C125.167,33.908 125.499,33.833 125.905,33.833 C126.339,33.833 126.746,33.73 126.893,33.583 C127.097,33.379 127.701,33.333 130.167,33.333 C132.632,33.333 133.237,33.379 133.44,33.583 C133.578,33.721 133.985,33.833 134.345,33.833 C134.705,33.833 135,33.908 135,34 C135,34.092 135.135,34.167 135.301,34.167 C135.682,34.167 136.833,35.209 136.833,35.554 C136.833,35.697 136.908,35.86 137,35.917 C137.092,35.973 137.167,36.315 137.167,36.677 C137.167,37.038 137.242,37.333 137.333,37.333 C137.43,37.333 137.5,37.861 137.5,38.583 L137.5,39.833 L142.667,39.833 L142.667,37.762 C142.667,36.143 142.612,35.636 142.417,35.44 C142.279,35.303 142.167,34.96 142.167,34.679 C142.167,34.397 142.092,34.167 142,34.167 C141.908,34.167 141.833,34.017 141.833,33.833 C141.833,33.65 141.758,33.5 141.667,33.5 C141.575,33.5 141.5,33.369 141.5,33.208 C141.5,33.048 141.331,32.717 141.125,32.474 C140.919,32.23 140.64,31.874 140.505,31.682 C140.37,31.49 140.144,31.333 140.003,31.333 C139.862,31.333 139.658,31.191 139.549,31.017 C139.34,30.682 138.436,30.167 138.058,30.167 C137.934,30.167 137.833,30.092 137.833,30 C137.833,29.908 137.571,29.833 137.25,29.833 C136.929,29.833 136.667,29.758 136.667,29.667 C136.667,29.574 136.222,29.5 135.667,29.5 C135.111,29.5 134.667,29.426 134.667,29.333 C134.667,29.226 133,29.167 130,29.167 C127,29.167 125.333,29.226 125.333,29.333 M156.667,29.333 C156.667,29.426 156.222,29.5 155.667,29.5 C155.111,29.5 154.667,29.574 154.667,29.667 C154.667,29.758 154.404,29.833 154.083,29.833 C153.762,29.833 153.5,29.908 153.5,30 C153.5,30.092 153.348,30.167 153.163,30.167 C152.781,30.167 151.66,30.859 150.936,31.542 C150.669,31.794 150.387,32 150.309,32 C150.231,32 150.167,32.112 150.167,32.25 C150.167,32.387 150.11,32.501 150.042,32.501 C149.892,32.503 149.5,33.31 149.5,33.617 C149.5,33.736 149.425,33.833 149.333,33.833 C149.242,33.833 149.167,33.983 149.167,34.167 C149.167,34.35 149.092,34.5 149,34.5 C148.908,34.5 148.833,34.831 148.833,35.236 C148.833,35.652 148.748,36.001 148.637,36.038 C147.899,36.284 147.867,53.331 148.604,53.614 C148.744,53.668 148.833,53.955 148.833,54.351 C148.833,54.708 148.908,55 149,55 C149.092,55 149.167,55.188 149.167,55.417 C149.167,55.646 149.242,55.833 149.333,55.833 C149.425,55.833 149.5,55.983 149.5,56.167 C149.5,56.35 149.575,56.5 149.667,56.5 C149.758,56.5 149.833,56.61 149.833,56.745 C149.833,57.082 151.396,58.667 151.729,58.667 C151.878,58.667 152,58.742 152,58.833 C152,58.925 152.08,59 152.179,59 C152.277,59 152.47,59.113 152.607,59.25 C152.763621,59.3960589 152.965422,59.4842583 153.179,59.5 C153.355,59.5 153.5,59.575 153.5,59.667 C153.5,59.758 153.721,59.833 153.99,59.833 C154.26,59.833 154.527,59.908 154.583,60 C154.64,60.092 155.127,60.167 155.667,60.167 C156.206,60.167 156.693,60.242 156.75,60.333 C156.815,60.438 158.61,60.5 161.583,60.5 C164.557,60.5 166.352,60.438 166.417,60.333 C166.473,60.242 166.961,60.167 167.5,60.167 C168.039,60.167 168.527,60.092 168.583,60 C168.64,59.908 168.878,59.833 169.112,59.833 C169.61,59.833 171.596,58.8 172.006,58.326 C172.162,58.147 172.342,58 172.406,58 C172.551,58 173,57.562 173,57.422 C173,57.365 173.15,57.158 173.333,56.962 C173.517,56.765 173.667,56.505 173.667,56.385 C173.667,56.265 173.742,56.167 173.833,56.167 C173.925,56.167 174,56.011 174,55.821 C174,55.632 174.112,55.364 174.25,55.226 C174.387,55.089 174.5,54.761 174.5,54.498 C174.5,54.235 174.575,53.973 174.667,53.917 C174.758,53.86 174.833,53.443 174.833,52.99 C174.833,52.537 174.908,52.167 175,52.167 C175.102,52.167 175.167,51.389 175.167,50.167 C175.167,48.944 175.231,48.167 175.333,48.167 C175.439,48.167 175.5,46.976 175.5,44.927 C175.5,42.946 175.435,41.646 175.333,41.583 C175.237,41.524 175.167,40.64 175.167,39.5 C175.167,38.36 175.096,37.476 175,37.417 C174.908,37.36 174.833,36.943 174.833,36.49 C174.833,36.037 174.768,35.667 174.689,35.667 C174.609,35.667 174.501,35.35 174.449,34.962 C174.397,34.574 174.275,34.231 174.177,34.198 C174.08,34.166 174,33.995 174,33.819 C174,33.644 173.925,33.5 173.833,33.5 C173.742,33.5 173.667,33.382 173.667,33.238 C173.652845,33.0615257 173.579151,32.8950971 173.458,32.766 C173.267146,32.5571179 173.087239,32.3384918 172.919,32.111 C172.737,31.867 172.52,31.667 172.438,31.667 C172.356,31.667 172.13,31.492 171.936,31.277 C171.45,30.741 170.586,30.167 170.266,30.167 C170.12,30.167 170,30.092 170,30 C170,29.908 169.7,29.833 169.333,29.833 C168.967,29.833 168.667,29.758 168.667,29.667 C168.667,29.573 168.194,29.5 167.583,29.5 C166.972,29.5 166.5,29.427 166.5,29.333 C166.5,29.226 164.75,29.167 161.583,29.167 C158.417,29.167 156.667,29.226 156.667,29.333 M222.917,29.333 C222.86,29.425 222.368,29.5 221.823,29.5 C221.274,29.5 220.833,29.574 220.833,29.667 C220.833,29.758 220.571,29.833 220.25,29.833 C219.929,29.833 219.667,29.892 219.667,29.964 C219.667,30.035 219.32,30.196 218.897,30.321 C218.402,30.467 217.867,30.808 217.401,31.274 C217.002,31.673 216.626,32 216.565,32 C216.352,32 215.667,32.921 215.667,33.208 C215.667,33.369 215.592,33.5 215.5,33.5 C215.408,33.5 215.333,33.65 215.333,33.833 C215.333,34.017 215.258,34.167 215.167,34.167 C215.075,34.167 215,34.312 215,34.49 C215,34.668 214.925,34.86 214.833,34.917 C214.742,34.973 214.667,35.307 214.667,35.659 C214.667,36.073 214.579,36.331 214.417,36.394 C214.24,36.461 214.167,36.736 214.167,37.328 C214.167,37.789 214.092,38.167 214,38.167 C213.897,38.167 213.833,39.052 213.833,40.49 C213.833,41.859 213.765,42.856 213.667,42.917 C213.572,42.975 213.5,43.804 213.5,44.833 C213.5,45.863 213.572,46.692 213.667,46.75 C213.765,46.811 213.833,47.832 213.833,49.25 C213.833,50.668 213.901,51.689 214,51.75 C214.092,51.807 214.167,52.226 214.167,52.682 C214.167,53.265 214.241,53.539 214.417,53.606 C214.58,53.669 214.667,53.928 214.667,54.351 C214.667,54.708 214.742,55 214.833,55 C214.925,55 215,55.188 215,55.417 C215,55.646 215.075,55.833 215.167,55.833 C215.258,55.833 215.333,55.967 215.333,56.13 C215.333,56.293 215.483,56.535 215.667,56.667 C215.85,56.799 216,56.986 216,57.083 C216,57.267 217.06,58.333 217.243,58.333 C217.3,58.333 217.508,58.483 217.705,58.667 C217.902,58.85 218.167,59 218.293,59 C218.42,59 218.636,59.113 218.774,59.25 C218.911,59.388 219.164,59.5 219.335,59.5 C219.507,59.5 219.693,59.575 219.75,59.667 C219.807,59.758 220.074,59.833 220.343,59.833 C220.613,59.833 220.833,59.908 220.833,60 C220.833,60.094 221.306,60.167 221.917,60.167 C222.528,60.167 223,60.239 223,60.333 C223,60.441 224.802,60.5 228.073,60.5 C231.276,60.5 233.185,60.439 233.25,60.333 C233.307,60.242 233.761,60.167 234.26,60.167 C234.759,60.167 235.167,60.092 235.167,60 C235.167,59.908 235.392,59.833 235.667,59.833 C235.942,59.833 236.167,59.758 236.167,59.667 C236.167,59.575 236.319,59.5 236.505,59.5 C236.691,59.5 236.887,59.387 236.94,59.25 C236.992,59.112 237.178,59 237.351,59 C237.525,59 237.667,58.925 237.667,58.833 C237.667,58.742 237.779,58.667 237.917,58.667 C238.054,58.667 238.467,58.367 238.833,58 C239.2,57.633 239.5,57.221 239.5,57.083 C239.5,56.946 239.575,56.833 239.667,56.833 C239.758,56.833 239.833,56.683 239.833,56.5 C239.833,56.317 239.908,56.167 240,56.167 C240.092,56.167 240.167,56.011 240.167,55.821 C240.167,55.632 240.279,55.364 240.417,55.226 C240.577,55.066 240.667,54.655 240.667,54.081 C240.667,53.589 240.742,53.14 240.833,53.083 C240.925,53.027 241,52.424 241,51.743 C241,50.237 241.147,50.302 237.917,50.369 L235.583,50.417 L235.535,51.708 C235.508,52.419 235.414,53 235.326,53 C235.239,53 235.167,53.262 235.167,53.583 C235.167,53.904 235.092,54.167 235,54.167 C234.908,54.167 234.833,54.26 234.833,54.375 C234.833,54.693 234.079,55.5 233.782,55.5 C233.638,55.5 233.473,55.575 233.417,55.667 C233.36,55.758 233.018,55.833 232.657,55.833 C232.296,55.833 232,55.908 232,56 C232,56.106 230.559,56.167 228.01,56.167 C225.53,56.167 223.981,56.104 223.917,56 C223.86,55.908 223.443,55.833 222.99,55.833 C222.537,55.833 222.167,55.758 222.167,55.667 C222.167,55.575 222.031,55.5 221.866,55.5 C221.529,55.5 220.333,54.475 220.333,54.186 C220.333,54.084 220.258,54 220.167,54 C220.075,54 220,53.85 220,53.667 C220,53.483 219.925,53.333 219.833,53.333 C219.742,53.333 219.667,53.123 219.667,52.867 C219.667,52.61 219.597,52.329 219.511,52.242 C219.425,52.155 219.331,50.852 219.302,49.347 C219.264,47.344 219.194,46.592 219.042,46.541 C218.927,46.503 218.833,46.366 218.833,46.236 C218.833,46.035 220.466,46 229.917,46 L241,46 L241,43.427 C241,41.891 240.933,40.811 240.833,40.75 C240.74,40.692 240.667,39.891 240.667,38.919 C240.667,37.605 240.607,37.131 240.417,36.94 C240.278,36.801 240.167,36.394 240.167,36.022 C240.167,35.654 240.092,35.307 240,35.25 C239.908,35.193 239.833,34.926 239.833,34.657 C239.833,34.387 239.758,34.167 239.667,34.167 C239.575,34.167 239.5,34.017 239.5,33.833 C239.5,33.65 239.425,33.5 239.333,33.5 C239.242,33.5 239.167,33.376 239.167,33.224 C239.167,32.891 238.435,31.901 237.776,31.345 C237.536505,31.1440465 237.30339,30.9356102 237.077,30.72 C236.956,30.599 236.744,30.5 236.605,30.5 C236.466,30.5 236.307,30.425 236.25,30.333 C236.193,30.242 236.001,30.167 235.823,30.167 C235.646,30.167 235.5,30.092 235.5,30 C235.5,29.908 235.279,29.833 235.01,29.833 C234.74,29.833 234.473,29.758 234.417,29.667 C234.36,29.575 233.868,29.5 233.323,29.5 C232.774,29.5 232.333,29.426 232.333,29.333 C232.333,29.226 230.67,29.167 227.677,29.167 C224.752,29.167 222.981,29.229 222.917,29.333 M165.06,33.583 C165.128,33.76 165.403,33.833 165.995,33.833 C166.456,33.833 166.833,33.908 166.833,34 C166.833,34.092 166.971,34.167 167.14,34.167 C167.575,34.167 169,35.559 169,35.983 C169,36.176 169.075,36.333 169.167,36.333 C169.258,36.333 169.333,36.591 169.333,36.907 C169.333,37.222 169.408,37.527 169.5,37.583 C169.596,37.643 169.667,38.526 169.667,39.665 C169.667,41.201 169.723,41.699 169.917,41.893 C170.118,42.094 170.167,42.664 170.167,44.833 C170.167,47.003 170.118,47.572 169.917,47.774 C169.724,47.967 169.667,48.457 169.667,49.919 C169.667,51.002 169.595,51.858 169.5,51.917 C169.408,51.973 169.333,52.315 169.333,52.677 C169.333,53.038 169.258,53.333 169.167,53.333 C169.075,53.333 169,53.446 169,53.585 C169,54.051 167.589,55.5 167.135,55.5 C166.969,55.5 166.833,55.575 166.833,55.667 C166.833,55.758 166.463,55.833 166.01,55.833 C165.557,55.833 165.14,55.908 165.083,56 C165.02,56.102 163.696,56.167 161.667,56.167 C159.637,56.167 158.313,56.102 158.25,56 C158.193,55.908 157.818,55.833 157.417,55.833 C157.015,55.833 156.64,55.758 156.583,55.667 C156.527,55.575 156.297,55.5 156.073,55.5 C155.85,55.5 155.667,55.425 155.667,55.333 C155.667,55.242 155.554,55.167 155.417,55.167 C155.279,55.167 155.167,55.106 155.167,55.031 C155.167,54.957 155.035,54.747 154.875,54.565 C154.463,54.096 154.167,53.547 154.167,53.252 C154.167,53.114 154.092,53 154,53 C153.908,53 153.833,52.704 153.833,52.343 C153.833,51.982 153.758,51.64 153.667,51.583 C153.56,51.517 153.5,49.085 153.5,44.833 C153.5,40.582 153.56,38.149 153.667,38.083 C153.758,38.027 153.833,37.689 153.833,37.333 C153.833,36.977 153.908,36.64 154,36.583 C154.092,36.527 154.167,36.335 154.167,36.157 C154.167,35.979 154.242,35.833 154.333,35.833 C154.425,35.833 154.5,35.717 154.5,35.576 C154.5,35.286 155.225,34.5 155.492,34.5 C155.586236,34.5016833 155.664275,34.427212 155.667,34.333 C155.667,34.242 155.812,34.167 155.99,34.167 C156.168,34.167 156.36,34.092 156.417,34 C156.473,33.908 156.838,33.833 157.228,33.833 C157.618,33.833 158.082,33.723 158.26,33.589 C158.744,33.223 164.92,33.218 165.06,33.583 M196.56,33.583 C196.624,33.748 196.885,33.833 197.328,33.833 C197.698,33.833 198,33.908 198,34 C198,34.092 198.15,34.167 198.333,34.167 C198.517,34.167 198.667,34.242 198.667,34.333 C198.667,34.425 198.802,34.5 198.967,34.5 C199.304,34.5 200.5,35.525 200.5,35.814 C200.5,35.916 200.575,36 200.667,36 C200.758,36 200.833,36.15 200.833,36.333 C200.833,36.517 200.908,36.667 201,36.667 C201.092,36.667 201.167,36.817 201.167,37 C201.167,37.183 201.242,37.333 201.333,37.333 C201.425,37.333 201.5,37.59 201.5,37.905 C201.5,38.219 201.612,38.589 201.75,38.726 C201.941,38.917 202,39.394 202,40.738 C202,41.802 202.066,42.5 202.167,42.5 C202.27,42.5 202.333,43.389 202.333,44.833 C202.333,46.278 202.27,47.167 202.167,47.167 C202.066,47.167 202,47.865 202,48.929 C202,50.272 201.941,50.75 201.75,50.94 C201.612,51.078 201.5,51.406 201.5,51.669 C201.5,51.932 201.425,52.193 201.333,52.25 C201.242,52.307 201.167,52.574 201.167,52.843 C201.167,53.113 201.092,53.333 201,53.333 C200.908,53.333 200.833,53.446 200.833,53.583 C200.833,53.721 200.758,53.833 200.667,53.833 C200.575,53.833 200.5,53.929 200.5,54.047 C200.5,54.164 200.341,54.37 200.146,54.505 C199.946615,54.6442255 199.755926,54.7955075 199.575,54.958 C199.455,55.073 199.277,55.167 199.179,55.167 C199.08,55.167 199,55.242 199,55.333 C199,55.425 198.85,55.5 198.667,55.5 C198.483,55.5 198.333,55.575 198.333,55.667 C198.333,55.758 197.963,55.833 197.51,55.833 C197.057,55.833 196.64,55.908 196.583,56 C196.522,56.099 195.443,56.167 193.907,56.167 C192.302,56.167 191.333,56.104 191.333,56 C191.333,55.908 190.958,55.833 190.5,55.833 C190.042,55.833 189.667,55.758 189.667,55.667 C189.667,55.575 189.51,55.5 189.318,55.5 C188.824,55.5 187,53.586 187,53.068 C187,52.847 186.925,52.667 186.833,52.667 C186.742,52.667 186.667,52.446 186.667,52.177 C186.667,51.907 186.592,51.64 186.5,51.583 C186.408,51.527 186.333,51.072 186.333,50.573 C186.333,50.075 186.258,49.667 186.167,49.667 C186.059,49.667 186,47.861 186,44.583 C186,41.306 186.059,39.5 186.167,39.5 C186.258,39.5 186.333,39.087 186.333,38.583 C186.333,38.079 186.408,37.667 186.5,37.667 C186.592,37.667 186.667,37.442 186.667,37.167 C186.667,36.892 186.742,36.667 186.833,36.667 C186.925,36.667 187,36.514 187,36.326 C187,36.139 187.084,35.885 187.187,35.762 C188.291,34.442 189.278,33.833 190.314,33.833 C190.813,33.833 191,33.765 191,33.583 C191,33.371 191.415,33.333 193.732,33.333 C196.007,33.333 196.48,33.375 196.56,33.583 M231.333,33.583 C231.447,33.721 231.754,33.833 232.015,33.833 C232.879,33.833 233.916,34.549 234.311,35.417 C234.436,35.692 234.605,36.047 234.686,36.206 C234.767,36.365 234.833,36.759 234.833,37.081 C234.833,37.403 234.908,37.667 235,37.667 C235.102,37.667 235.167,38.444 235.167,39.667 L235.167,41.667 L219.333,41.667 L219.333,39.927 C219.333,38.946 219.406,38.141 219.5,38.083 C219.592,38.027 219.667,37.725 219.667,37.412 C219.667,37.099 219.817,36.576 220,36.25 C220.183,35.924 220.333,35.578 220.333,35.483 C220.333,35.253 220.761,34.833 220.995,34.833 C221.097,34.833 221.342,34.683 221.538,34.5 C221.735,34.317 222.065,34.167 222.272,34.167 C222.478,34.167 222.693,34.092 222.75,34 C222.807,33.908 223.151,33.833 223.515,33.833 C223.95,33.833 224.21,33.747 224.273,33.583 C224.354,33.372 224.898,33.333 227.747,33.333 C230.547,33.333 231.161,33.376 231.333,33.583" id="Shape" fill="#0098CF"></path>
        </g>
    </g>
</svg>