<?xml version="1.0" encoding="utf-8"?>
<!-- Generator: Adobe Illustrator 22.1.0, SVG Export Plug-In . SVG Version: 6.00 Build 0)  -->
<svg version="1.1" id="Layer_1" xmlns="http://www.w3.org/2000/svg" xmlns:xlink="http://www.w3.org/1999/xlink" x="0px" y="0px"
	 viewBox="0 0 2303.4 478.1" style="enable-background:new 0 0 2303.4 478.1;" xml:space="preserve">
<style type="text/css">
	.st0{fill:url(#XMLID_6_);}
	.st1{fill:none;stroke:#E6E7E8;stroke-width:5;stroke-miterlimit:10;}
	.st2{fill:#E6E7E8;}
	.st3{fill:none;stroke:#E6E7E8;stroke-width:3;stroke-miterlimit:10;}
	.st4{fill:none;stroke:#E6E7E8;stroke-width:3;stroke-linecap:round;stroke-linejoin:round;stroke-miterlimit:10;}
	.st5{fill:none;stroke:#E6E7E8;stroke-width:3;stroke-linejoin:round;stroke-miterlimit:10;}
	.st6{fill:#6D6E71;stroke:#E6E7E8;stroke-width:3;stroke-miterlimit:10;}
	.st7{fill:#FFDE17;}
</style>
<g id="XMLID_65_">
	
		<radialGradient id="XMLID_6_" cx="239.05" cy="404.15" r="227.35" fx="396.1845" fy="239.8432" gradientTransform="matrix(1 0 0 -1 0 642.6)" gradientUnits="userSpaceOnUse">
		<stop  offset="0" style="stop-color:#F6D809"/>
		<stop  offset="0.4818" style="stop-color:#FFDE17"/>
		<stop  offset="1" style="stop-color:#FFDD00"/>
	</radialGradient>
	<polygon id="XMLID_423_" class="st0" points="333.2,465.8 144.9,465.8 11.7,332.6 11.7,144.3 144.9,11.1 333.2,11.1 466.4,144.3 
		466.4,332.6 	"/>
	<polygon id="XMLID_422_" class="st1" points="332,463.5 145.6,463.5 13.8,331.7 13.8,145.3 145.6,13.5 332,13.5 463.8,145.3 
		463.8,331.7 	"/>
	<g id="XMLID_413_">
		<circle id="XMLID_421_" class="st2" cx="14.3" cy="145.7" r="14.3"/>
		
			<ellipse id="XMLID_420_" transform="matrix(3.327792e-02 -0.9994 0.9994 3.327792e-02 -317.1924 334.4704)" class="st2" cx="14.3" cy="331.2" rx="14.3" ry="14.3"/>
		<circle id="XMLID_419_" class="st2" cx="463.8" cy="145.7" r="14.3"/>
		<circle id="XMLID_418_" class="st2" cx="463.8" cy="331.2" r="14.3"/>
		<circle id="XMLID_417_" class="st2" cx="146.1" cy="463.8" r="14.3"/>
		<circle id="XMLID_416_" class="st2" cx="331.5" cy="463.8" r="14.3"/>
		<circle id="XMLID_415_" class="st2" cx="146.1" cy="14.3" r="14.3"/>
		<circle id="XMLID_414_" class="st2" cx="331.5" cy="14.3" r="14.3"/>
	</g>
	<g id="XMLID_396_">
		<path id="XMLID_412_" class="st3" d="M146.1,463.8l317.7-318.1L146.1,463.8z"/>
		<g id="XMLID_397_">
			<polygon id="XMLID_407_" class="st4" points="14.3,145.7 331.5,463.8 463.8,145.7 			"/>
			<g id="XMLID_398_">
				<polygon id="XMLID_406_" class="st5" points="331.8,11.3 463.8,331.2 146.3,460.8 14.3,145.7 				"/>
				<g id="XMLID_399_">
					<g id="XMLID_403_">
						<polygon id="XMLID_405_" class="st5" points="14.3,145.7 463.8,331.2 14.3,331.2 463.8,145.7 						"/>
						<polygon id="XMLID_404_" class="st5" points="146.3,460.8 331.8,11.3 331.8,460.8 146.3,11.3 						"/>
					</g>
					<polygon id="XMLID_402_" class="st5" points="145.6,13.5 463.8,145.7 331.5,463.8 14.3,331.2 					"/>
					<polyline id="XMLID_401_" class="st3" points="145.6,13.5 463.8,331.2 14.3,331.2 					"/>
					<path id="XMLID_400_" class="st6" d="M331.5,14.3L14.3,331.2L331.5,14.3z"/>
				</g>
			</g>
		</g>
	</g>
	<g id="XMLID_174_">
		<g id="XMLID_392_">
			<path id="XMLID_395_" d="M107.9,164L107.9,164C107.8,164,107.8,164,107.9,164z"/>
			<path id="XMLID_394_" d="M100.7,245.9c4.3,0.2,6.8-0.3,9,0.4c9.7,3.1,19.1,6.8,28.8,9.6c3.7,1.1,8,0.5,12.3,0.7
				c-0.1,0.4-0.2,1.6-0.5,3.2c10.3,0.8,37.5-7.5,66.9-18.8c2.1,1.9,4.1,3.6,6.1,5.1c0,0,0.1,0,0.1,0.1c-31,13.6-58,27.9-63.1,35.4
				c1,0.8,2,1.7,2.2,1.9c-3,3.2-6.3,5.6-8.1,8.9c-4.8,8.9-8.9,18.2-13.6,27.2c-1.1,2.1-3.4,3.7-6.4,6.7c3.8,17.9,14.7,34.3,25,50.6
				c-4.1-12.9-8.5-26.1-12.2-39.4c-0.8-2.7,0-6.7,1.6-9c8.5-11.3,14.9-23.4,17-35.8c19.1-11.7,36.9-22.7,54.8-33.7
				c-12.7,22.3-30,41.1-38,65.7c6.8,1.6,7.5,4.5,2.9,9.2c-1.2,1.2-2.2,3.3-2.2,5c0.3,12.6,0.9,25.2,1.6,37.9
				c0.1,1.3,1.2,3.1,2.3,3.8c5.4,3,5.2,6.2,0.5,9.4c7.4,13.9,34.5,36.8,46.2,39.2c-0.2-0.4-0.3-1-0.6-1.2
				c-13.6-10.7-24.9-23.6-34.3-38.1c-0.7-1-1.6-2.2-1.7-3.3c-0.5-6.5-0.7-13-1.1-19.5c-0.9-14.7-1.6-29.1,3.7-43.5
				c6.7-18.4,16.3-34.8,30.3-49c5.7,6.4,9,16.3,19.7,15.7c-4.1-5.4-8-10.6-11.9-15.9c0.5-0.3,0.9-0.7,1.4-1c2.1,0.6,4.2,1.1,4.4,1.1
				c2-4,2.9-9.1,5.1-9.7c3.2-0.8,7.2,1.6,11.5,2.8c0.3-0.6,1.3-2.5,2.4-4.4c0.6,0,1.1,0,1.7,0.1c0.8,6.6,1.7,13.3,2.5,20.3
				c7.9-7.8,3.5-16.8,2.8-25.9c8.8,1,17.7,0.8,26,3.1c13.7,3.8,27.1,9,40.4,14.2c2.4,0.9,3.6,4.7,5.6,6.9c8.3,9.2,16.1,19,25.4,27.2
				c6.2,5.4,7.6,11.8,8.1,18.8c1.1,14.6,1.5,29.3,2.1,44c2.7-11.8,5-23.9,6.2-36.1c0.7-7.2-0.3-14.5-0.9-21.7
				c-0.1-1.6-1.8-4.4-2.6-4.3c-6.5,0.5-5.2-3.2-4.6-7.2c0.2-1.4-0.4-3.4-1.3-4.4c-8.3-9.2-16.7-18.4-25.2-27.3
				c-1.3-1.3-3.7-2.1-5.7-2.2c-6.6-0.2-7.8-3-4.2-8.6c-23.2-11.8-48.9-12.7-73.4-19.6c20.6-4.9,41.2-9.8,62.8-14.9
				c10.1,7.2,22.6,10.9,35.8,13.1c3.5,0.6,7.8,3.4,9.6,6.5c6.6,11.1,12.2,22.7,18.6,34.9c-4.9-19.2-7.9-38.2-18.1-52.8
				c-4.3-0.2-6.8,0.3-9-0.4c-9.7-3.1-19.1-6.8-28.8-9.6c-3.7-1.1-8-0.5-12.3-0.7c0.1-0.4,0.2-1.6,0.5-3.2
				c-10.5-0.8-38.7,7.9-68.9,19.6c0-0.1,0-0.2,0-0.2c0.3-2.5,0.6-5.2,0.7-7.9c28.5-12.7,53.2-25.8,59.8-33.6c-1.3-1-2.3-1.7-2.6-1.9
				c3-3.2,6.3-5.8,8.2-9.2c4.9-8.9,9-18.2,13.6-27.2c1-2,3.1-3.5,6.1-6.7c-3.1-17.6-14.4-33.1-24.5-50.2
				c4.1,13.2,8.3,25.4,11.5,37.9c0.9,3.5-0.1,8.5-2.2,11.4c-7.8,10.9-14,22.3-16.1,34.5c-18.4,11.3-36,22.2-53.6,33c0-0.5,0-1,0-1.4
				c12.4-21.2,28.9-39.5,36.7-63.5c-6.5-1.4-7.6-4.2-3.1-9c0.7-0.7,1.3-1.7,1.8-2.7c1.4-2.2,1.3-5.1,1-10.8
				c-0.3-5.1-0.6-10.3-0.9-15.8c-0.1-0.2-0.2-0.5-0.2-0.9c-0.9-9.5-13.3-15.3-13.3-15.3c0,0.1,0,0,0,0c-7.9-5.1-42.1-22.5-52.9-23.7
				c17.1,12.6,51.9,37.4,52.5,38.8s0.2,1.7,0.4,2.5c0.3,6.5,0.9,13.1,1.2,19.6c0.1,3,2,6.5,0.9,8.8c-5.7,13.1-11.5,26.2-18.5,38.6
				c-1.9,3.4-4.3,6.5-6.8,9.5c-1.7-23.5-4.3-47.8-1.6-64.6c-27.4-17.1-54.7-30.8-82.1-46.7c-8.5,30.3-16.8,60.1-25.6,91.7
				c14.5,9.6,30.2,28.7,45.7,46.7c-4.4-0.4-8.7-0.9-12.8-2.1c-13.7-3.8-27.1-9-40.4-14.2c-2.4-0.9-3.6-4.7-5.6-6.9
				c-4.4-4.8-8.6-9.9-13-14.7c-0.5-0.7-1-0.7-1.5-2c-0.5-1.4,6.6-43.5,9.7-64.6c-6.7,8.5-18.6,45-20.6,54.2c0,0,0.1,0.1,0,0
				c0,0-4.6,12.9,1.4,20.2c0.2,0.3,0.4,0.6,0.5,0.8c3.7,4.1,7.1,8,10.5,11.8c3.8,4.3,5.8,6.4,8.4,7c1,0.4,2.1,0.6,3.1,0.6
				c6.6,0.2,7.8,3,4.2,8.6c22.9,11.7,48.2,12.7,72.4,19.3c0.1,0.1,0.3,0.3,0.4,0.4c-20.4,4.9-40.9,9.7-62.2,14.8
				c-10.1-7.2-22.6-10.9-35.8-13.1c-3.5-0.6-7.8-3.4-9.6-6.5c-6.6-11.1-12.2-22.7-18.6-34.9C87.4,212.3,90.4,231.3,100.7,245.9z"/>
			<path id="XMLID_393_" d="M278.9,93.2L278.9,93.2C278.9,93.1,278.9,93.2,278.9,93.2z"/>
		</g>
		<path id="XMLID_375_" class="st7" d="M211.8,146.3c0.5-0.1,0.9-0.2,1.3-0.3c2.3-0.5,4.7-0.4,6.9,0.6c1.7,0.8,3.1,2,4.1,3.6
			c1.8,2.8,1.8,5.7,0.9,8.8c-0.8,2.7-2.5,4.9-4.6,6.7c-0.4,0.3-0.7,0.6-1.1,0.9c0.5,0.6,0.9,1.1,1.4,1.6c1.2,1.4,2.5,2.9,3.7,4.3
			c0.2,0.2,0.2,0.3,0,0.5c-1.1,0.9-2.2,1.9-3.2,2.8c-0.2,0.2-0.3,0.2-0.5,0c-1.6-1.9-3.2-3.7-4.9-5.6c-0.1-0.1-0.2-0.2-0.3-0.3
			c-0.9,0.8-1.9,1.6-2.8,2.5c0.5,0.6,1,1.1,1.4,1.6c1.2,1.4,2.5,2.8,3.7,4.2c0.2,0.2,0.2,0.3,0,0.5c-1.1,0.9-2.1,1.8-3.2,2.8
			c-0.3,0.2-0.4,0.2-0.6-0.1c-1.6-1.9-3.2-3.7-4.8-5.5c-0.2-0.2-0.3-0.2-0.5,0c-2.3,2-4.7,4-7,6.1c-0.1,0.1-0.2,0.2-0.3,0.3
			c-0.1-0.1-0.2-0.3-0.3-0.4c-0.6-1.1-1.1-2.2-1.7-3.2c-0.2-0.4-0.5-0.9-0.7-1.3c-0.2-0.3-0.1-0.5,0.1-0.7c0.8-0.6,1.5-1.3,2.3-1.9
			c0.7-0.6,0.9-1.6,0.2-2.5c-4.3-4.9-8.6-9.8-12.8-14.8c-0.5-0.6-1-1.1-1.4-1.6c-0.9-1-2.3-1.1-3.3-0.2c-0.9,0.8-1.9,1.6-2.8,2.4
			c-0.2,0.2-0.4,0.2-0.6,0c-1-1.1-1.9-2.3-2.9-3.4c-0.2-0.3-0.2-0.4,0.1-0.6c2.3-2,4.5-3.9,6.8-5.9c0.4-0.4,0.4-0.4,0.1-0.8
			c-1.6-1.8-3.2-3.6-4.7-5.5c-0.1-0.2-0.2-0.3,0-0.4c1.2-1,2.3-2,3.6-3.1c0.3,0.4,0.6,0.7,1,1.1c1.4,1.6,2.8,3.2,4.2,4.8
			c0.1,0.1,0.2,0.3,0.4,0.1c0.9-0.8,1.7-1.5,2.7-2.3c-0.3-0.4-0.7-0.8-1-1.2c-1.4-1.6-2.7-3.1-4.1-4.7c-0.2-0.2-0.2-0.3,0-0.5
			c1.1-0.9,2.2-1.9,3.2-2.8c0.2-0.2,0.4-0.1,0.5,0.1c1.6,1.9,3.2,3.7,4.8,5.6c0.2,0.3,0.4,0.3,0.6,0c1-0.9,2.1-1.7,3.3-2.2
			c2.4-1.1,4.9-1.4,7.5-0.8c1.7,0.4,3,1.3,4.2,2.6c1.9,2.1,2.4,4.5,1.9,7.3C211.9,145.5,211.8,145.8,211.8,146.3z M208.6,167.8
			c0.1-0.1,0.1-0.1,0.2-0.1c1.6-1.4,3.1-2.7,4.7-4.1c1.7-1.5,2.8-3.3,3-5.6c0.2-2.4-1.4-4.5-3.8-4.7c-2.2-0.2-4.1,0.5-5.7,1.9
			c-1.7,1.4-3.3,2.8-5,4.3c-0.2,0.2-0.3,0.3,0,0.5c1.6,1.8,3.2,3.7,4.8,5.5C207.3,166.3,208,167,208.6,167.8z M198.3,155.9
			c0.1-0.1,0.2-0.2,0.3-0.2c1.3-1.1,2.5-2.2,3.8-3.3c1.3-1.2,2.2-2.6,2.4-4.3c0.4-2.4-1.2-4.4-3.4-4.8c-1.8-0.3-3.4,0.2-4.8,1.2
			c-1.2,0.9-2.3,2-3.5,3c-0.4,0.3-0.8,0.7-1.2,1C194.1,151,196.2,153.5,198.3,155.9z"/>
	</g>
</g>
<g id="XMLID_3_">
	<path id="XMLID_2_" d="M673.4,382.4c-17.4,0-33.4-3.2-48.7-9.2c-14.9-6-28.1-15.3-39.1-27c-11-11.7-19.9-26.3-26-43.8
		c-6.4-17.4-9.6-37.4-9.6-59.4c0-22.4,3.6-42.3,10.3-59.4c6.8-17.4,16-32,27.4-43.8c11.4-11.7,24.5-20.6,39.8-26.7
		c14.9-6,30.9-8.9,47.3-8.9c10.3,0,19.2,0.7,27.7,1.8c8.2,1.4,15.7,2.8,21.7,5c6.4,1.8,11.7,3.9,16,5.7c4.3,1.8,7.8,3.6,10.3,5.3
		l-8.5,22.8c-6.4-3.9-14.6-7.5-24.9-11.4c-10-3.6-22.4-5.7-37.4-5.7c-17.1,0-31.7,2.8-44.1,8.5c-12.5,5.7-23.1,13.5-31.7,23.8
		s-14.9,22.4-19.2,36.6c-4.3,14.2-6.4,29.9-6.4,47c0,17.8,2.1,33.8,6.4,48c4.3,14.2,10.7,26.3,18.9,36.3c8.2,10,18.5,17.8,30.6,23.1
		c12.1,5.3,26,8.2,41.6,8.2c17.1,0,31.7-1.8,43-5c11.7-3.2,20.3-6.4,26.3-10l7.5,22.4c-1.8,1.4-5,2.8-9.2,4.3
		c-4.3,1.8-10,3.6-16.7,5.3c-6.8,1.8-14.6,3.2-23.5,4.3C694.4,381.7,684.5,382.4,673.4,382.4z"/>
	<path id="XMLID_5_" d="M970.1,376.3c-5-13.2-10-25.6-14.2-37.7c-4.3-12.1-8.5-23.8-12.5-35.2H811.1c-4.6,11.4-8.9,23.5-13.2,35.6
		c-4.3,12.1-8.9,24.5-13.9,37.7h-27.7c10.3-27.7,19.9-53.7,29.2-77.5s18.1-46.6,27-68.3c8.9-21.3,17.4-42,26.3-61.9
		c8.5-19.6,17.8-39.5,27.4-59.4h23.5c9.6,19.9,18.5,39.5,27,59.4c8.5,19.9,17.1,40.6,26,61.9c8.9,21.3,17.8,44.1,26.7,68.3
		s18.9,49.8,29.9,77.5h-29.2V376.3z M876.9,139.4c-10,22.1-19.2,44.8-28.5,67.6s-18.9,47.3-28.8,74h115.3
		c-10-26.3-19.6-51.2-29.2-74C896.5,184.2,886.9,161.5,876.9,139.4z"/>
	<path id="XMLID_8_" d="M1082.5,359.6c21,0,37.4-3.9,49.1-11.4c11.7-7.5,17.4-19.9,17.4-37c0-10-1.8-17.8-5.7-24.5
		c-3.9-6.4-8.9-12.1-14.9-16.7c-6-4.6-13.5-8.2-21.3-11.4c-8.2-3.2-16.4-6.4-25.3-10.3c-11-4.3-21.3-8.9-29.9-13.5
		c-8.9-4.6-16.4-9.6-22.8-15.7c-6.4-5.7-11-12.5-14.2-19.9s-5-16-5-26.3c0-22.8,7.8-40.2,23.1-51.9c15.3-11.7,36.6-17.8,64-17.8
		c7.1,0,14.6,0.4,21.3,1.4c7.1,1.1,13.5,2.5,19.6,3.9c6,1.8,11.7,3.6,16.7,5.7s9.2,4.3,12.8,6.4l-9.2,22.1
		c-7.5-5-16.7-9.2-27.4-12.5c-10.7-3.2-22.4-4.6-34.9-4.6c-8.5,0-16.4,0.7-23.5,2.5c-7.1,1.8-13.2,4.3-18.5,8.2
		c-5.3,3.6-9.2,8.5-12.5,14.2c-2.8,5.7-4.6,12.5-4.6,20.3c0,8.2,1.4,15.3,4.6,20.6c3.2,5.7,7.5,10.7,13.2,14.6
		c5.7,4.3,12.1,7.8,19.6,11c7.5,3.2,15.7,6.8,24.5,10.3c10.7,4.3,20.6,8.9,30.2,13.2s17.8,9.6,24.9,15.3c7.1,6,12.5,13.2,16.7,21.7
		c4.3,8.5,6.4,18.9,6.4,31.3c0,24.2-8.5,42.3-25.6,54.4c-17.1,12.1-40.2,18.1-69.4,18.1c-10.3,0-19.9-0.7-28.5-1.8
		c-8.5-1.4-16.4-2.8-23.1-5c-6.8-1.8-12.5-3.9-17.1-6c-4.6-2.1-8.2-3.9-11-5.3l8.5-22.8c2.5,1.4,6,3.2,10.7,5.3
		c4.3,2.1,9.6,3.9,15.7,6c6,1.8,12.8,3.6,20.3,5C1065.1,358.9,1073.6,359.6,1082.5,359.6z"/>
	<path id="XMLID_10_" d="M1379.9,109.5h26.7v267.2h-26.7V248.3h-146.6v128.4h-26.7V109.5h26.7v116h146.6V109.5z"/>
	<path id="XMLID_12_" d="M1704.3,138c3.2,10.7,6.4,22.4,10.3,35.6c3.9,13.2,7.8,27,12.1,40.9c4.3,14.2,8.5,28.1,13.2,42.3
		c4.3,14.2,8.5,27.4,12.8,39.1c3.6-13.2,6.8-27.4,10.3-42.7c3.6-15.3,6.8-31.3,10-47.7c3.2-16.4,6-32.7,9.2-49.1
		c2.8-16.4,5.7-32,8.5-47.3h63.3c-9.2,44.8-19.6,90-31.7,135.9c-11.7,45.9-24.9,89.6-38.8,130.9h-55.5
		c-9.2-24.5-17.8-50.5-26.3-77.5c-8.5-27-17.1-54.4-25.3-81.5c-8.2,27.4-16.7,54.4-24.9,81.5c-8.2,27-17.1,53-26.3,77.5h-55.5
		c-13.9-41.3-26.7-85-38.4-130.9c-11.7-45.9-22.4-91.4-31.7-135.9h65.5c2.5,15.3,5.3,30.9,8.5,47.3s6.4,32.7,10,49.1
		c3.6,16.4,6.8,32.4,10.3,47.7c3.6,15.3,7.1,29.5,10.7,42.7c4.6-12.5,9.2-26,13.5-40.2c4.3-14.2,8.9-28.1,12.8-42.3
		c4.3-14.2,8.2-27.7,11.4-40.9c3.6-13.2,6.8-24.9,9.6-35.2h52.3V138z"/>
	<path id="XMLID_14_" d="M1873,376.3V109.2h182.5v50.5h-121.7V212h108.1v49.4h-108.1v64.4h130.6v50.5L1873,376.3L1873,376.3z"/>
	<path id="XMLID_16_" d="M2180,379.9c-14.9,0-29.5-0.4-44.1-1.4c-14.6-1.1-29.9-2.8-45.9-6.4v-259c12.5-2.1,26-3.9,40.9-5.3
		c14.9-1.1,28.5-1.8,41.3-1.8c17.1,0,33.1,1.1,47.3,3.6c14.6,2.5,26.7,6.8,37.4,12.5c10.3,6,18.5,13.5,24.5,23.5
		c5.7,9.6,8.9,21.3,8.9,35.6c0,21.3-10.3,38.1-31.3,50.5c17.1,6.4,28.8,15.3,35.2,26.3c6.4,11,9.2,23.5,9.2,37.4
		c0,28.1-10.3,49.1-30.9,63.3C2251.5,372.8,2220.9,379.9,2180,379.9z M2149,214.1h29.5c18.9,0,32-2.5,40.2-7.1
		c8.2-4.6,12.1-12.5,12.1-22.8c0-10.7-4.3-18.5-12.5-22.8c-8.2-4.3-20.6-6.4-36.6-6.4c-5.3,0-10.7,0-16.7,0.4c-6,0-11.4,0.4-16,1.1
		V214.1L2149,214.1z M2149,260v69c4.3,0.4,9.2,1.1,14.6,1.1c5.3,0.4,11,0.4,17.1,0.4c18.1,0,32.7-2.5,44.1-7.8
		c11-5,16.7-14.6,16.7-28.5c0-12.5-4.6-21-13.9-26.3c-9.2-5.3-22.8-7.8-40.2-7.8L2149,260L2149,260z"/>
</g>
<g id="XMLID_1_">
</g>
<g id="XMLID_20_">
</g>
<g id="XMLID_21_">
</g>
<g id="XMLID_22_">
</g>
<g id="XMLID_23_">
</g>
<g id="XMLID_24_">
</g>
</svg>
