<?xml version="1.0" encoding="UTF-8"?>
<svg width="351px" height="80px" viewBox="0 0 351 80" version="1.1" xmlns="http://www.w3.org/2000/svg" xmlns:xlink="http://www.w3.org/1999/xlink">
    <!-- Generator: Sketch 57.1 (83088) - https://sketch.com -->
    <title>bchd</title>
    <desc>Created with Sketch.</desc>
    <g id="Page-1" stroke="none" stroke-width="1" fill="none" fill-rule="evenodd">
        <g id="bchd" fill-rule="nonzero">
            <path d="M144,38.9 C149.9,42.6 152.1,48.3 151.1,56.3 C149.1,72.4 135.8,78.4 120.5,78.4 L91.6,78.4 C90.6,78.4 90.1,77.7 90.2,76.7 L99.4,2.5 C99.5,1.5 100.2,0.8 101.2,0.8 L129.1,0.8 C146.6,0.8 156,6.3 154,22.7 C153.1,30 149.8,34.9 144.1,37.9 C143.6,38.2 143.6,38.7 144,38.9 Z M131.2,54.1 C131.6,50 129.3,47.9 124.4,47.9 L114.5,47.9 C114.2,47.9 113.8,48.1 113.8,48.6 L112.4,60 C112.4,60.4 112.5,60.7 113,60.7 L122.7,60.7 C127.7,60.6 130.6,58.4 131.2,54.1 Z M117.4,19.4 L116.1,30.3 C116.1,30.7 116.2,31 116.7,31 L125.4,31 C130.5,31 133.5,28.9 133.9,24.9 C134.5,20.9 132,18.8 126.8,18.8 L118.2,18.8 C117.9,18.7 117.5,18.9 117.4,19.4 Z M156.5,50.7 L159.3,28.3 C161.4,11.3 174.6,7.10542736e-15 192.4,7.10542736e-15 C210.2,7.10542736e-15 220.8,10.6 218.8,26.7 C218.8,27.4 218,27.8 217.1,27.9 L199.9,29 C198.8,29.1 198.4,28.8 198.4,28.4 L198.5,27.7 C199.3,21.7 196,17.7 190.3,17.7 C184.5,17.7 180.3,21.7 179.6,27.7 L176.7,51.5 C175.9,57.4 179.2,61.4 184.9,61.4 C190.7,61.4 194.9,57.4 195.5,51.5 C195.6,50.7 196.3,50.2 197.3,50.3 L214.2,51.2 C215.2,51.3 215.8,51.4 215.8,51.8 L215.7,52.4 C213.7,68.6 200.5,79.3 182.7,79.3 C164.8,79.3 154.4,67.9 156.5,50.7 L156.5,50.7 Z M267.7,0.9 L284.8,0.9 C285.7,0.9 286.2,1.6 286.1,2.6 L277,76.8 C276.9,77.8 276.1,78.5 275.2,78.5 L258.1,78.5 C257.2,78.5 256.7,77.8 256.8,76.8 L260.2,48.8 C260.2,48.4 260.1,48.1 259.6,48.1 L243,48.1 C242.6,48.1 242.3,48.3 242.3,48.8 L238.9,76.8 C238.8,77.8 238,78.5 237,78.5 L220.1,78.5 C219.1,78.5 218.6,77.8 218.7,76.8 L228,2.5 C228.1,1.5 228.8,0.8 229.8,0.8 L246.8,0.8 C247.8,0.8 248.3,1.5 248.2,2.5 L244.9,29.5 C244.8,29.9 245,30.2 245.5,30.2 L262,30.2 C262.4,30.2 262.7,30 262.8,29.5 L266.1,2.5 C266.1,1.6 266.8,0.9 267.7,0.9 L267.7,0.9 Z" id="Shape" fill="#000000"></path>
            <path d="M285.2,76.8 L294.4,2.6 C294.5,1.6 295.2,0.9 296.2,0.9 L323.8,0.9 C341.4,0.9 352,10.9 350.2,25.8 L346.9,53.5 C345,68.4 331.9,78.4 314.3,78.4 L286.7,78.4 C285.6,78.4 285.1,77.7 285.2,76.8 L285.2,76.8 Z M308,60.6 L317.2,60.6 C322,60.6 325.9,56.4 326.9,50 L329.4,29.4 C330.2,23 327.3,18.8 322.1,18.8 L313.1,18.8 C312.7,18.8 312.4,19 312.3,19.5 L307.3,60 C307.4,60.4 307.5,60.6 308,60.6 L308,60.6 Z M23.1,26.7 C20.5,26.7 19.3,25.6 20.3,24.2 C21.4,22.8 24.4,21.7 26.9,21.7 L79.6,21.7 C82.2,21.7 84.1,22.8 83.9,24.2 C83.7,25.6 81.4,26.7 78.8,26.7 L23.1,26.7 Z M3.2,38.9 C0.6,38.9 -0.6,37.8 0.4,36.4 C1.4,35 4.4,34 7,34 L78,34 C80.6,34 82.6,35.1 82.4,36.5 C82.2,37.9 80,39 77.4,39 L3.2,38.9 Z M35.3,51.1 C32.7,51.1 31.2,50 32,48.6 C32.8,47.2 35.5,46.1 38.1,46.1 L76.7,46.1 C79.3,46.1 81.3,47.2 81.1,48.6 C80.9,50 78.6,51.1 76.1,51.1 L35.3,51.1 Z" id="Shape" fill="#24E6AA"></path>
        </g>
    </g>
</svg>